<?xml version="1.0" encoding="UTF-8" standalone="no"?>
<!-- Created with Inkscape (http://www.inkscape.org/) -->

<svg
   width="488.99188"
   height="158.77278"
   viewBox="0 0 488.99188 158.77278"
   version="1.1"
   id="svg1"
   inkscape:export-filename="logo_solutio.webp"
   inkscape:export-xdpi="300"
   inkscape:export-ydpi="300"
   xmlns:inkscape="http://www.inkscape.org/namespaces/inkscape"
   xmlns:sodipodi="http://sodipodi.sourceforge.net/DTD/sodipodi-0.dtd"
   xmlns="http://www.w3.org/2000/svg"
   xmlns:svg="http://www.w3.org/2000/svg">
  <sodipodi:namedview
     id="namedview1"
     pagecolor="#ffffff"
     bordercolor="#000000"
     borderopacity="0.25"
     inkscape:showpageshadow="2"
     inkscape:pageopacity="0.0"
     inkscape:pagecheckerboard="0"
     inkscape:deskcolor="#d1d1d1"
     inkscape:document-units="px"
     inkscape:zoom="1.2529727"
     inkscape:cx="246.61352"
     inkscape:cy="236.63725"
     inkscape:window-width="1280"
     inkscape:window-height="772"
     inkscape:window-x="0"
     inkscape:window-y="28"
     inkscape:window-maximized="0"
     inkscape:current-layer="layer1">
    <inkscape:page
       x="0"
       y="0"
       width="488.99188"
       height="158.77278"
       id="page2"
       margin="0"
       bleed="0" />
  </sodipodi:namedview>
  <defs
     id="defs1" />
  <g
     inkscape:label="Calque 1"
     inkscape:groupmode="layer"
     id="layer1"
     transform="translate(-15.000004,-160.91362)">
    <g
       id="g5"
       style="mix-blend-mode:normal;fill:#318ce7;fill-opacity:1"
       transform="matrix(0.53515355,0,0,0.53515355,-30.038719,29.293912)">
      <path
         d="m 216.86586,540.21145 c 2.01151,-1.35556 4.26525,-3.66615 5.00833,-5.13466 0.74305,-1.46849 1.3552,-4.12932 1.3603,-5.91292 0.006,-1.78362 -0.73054,-4.66162 -1.63478,-6.39556 l -1.64404,-3.15261 18.60716,-28.19576 c 10.23394,-15.50765 18.95547,-28.6103 19.38116,-29.11699 0.42569,-0.50667 2.15926,0.0845 3.85238,1.31384 1.69311,1.22929 5.37257,2.73673 8.17657,3.34985 3.53138,0.77217 6.73357,0.76404 10.41955,-0.0265 3.42873,-0.73533 6.9541,-2.53881 9.91209,-5.07073 2.52491,-2.16122 5.48687,-5.90241 6.58212,-8.31374 1.09525,-2.41134 2.00207,-6.41194 2.01512,-8.89026 l 0.0237,-4.50604 6.96198,-2.31679 c 3.82908,-1.27424 9.78799,-4.15967 13.24197,-6.41208 3.45401,-2.25242 8.85525,-6.72197 12.00276,-9.93235 3.14751,-3.21037 7.16106,-8.75569 8.91902,-12.32291 1.75795,-3.56723 3.79741,-9.03969 4.53211,-12.16101 0.73471,-3.12133 1.61204,-5.67513 1.9496,-5.67513 0.33755,0 2.46188,3.59258 4.72072,7.98351 3.04129,5.91196 3.90087,8.64676 3.31263,10.53955 -0.4369,1.4058 -2.4973,5.96108 -4.57865,10.12286 -2.6738,5.34641 -6.35938,10.13975 -12.55975,16.33483 -7.03247,7.02645 -10.60052,9.63756 -17.96381,13.1459 -5.05357,2.40785 -10.72861,4.69407 -12.61119,5.08053 -1.88257,0.38644 -3.72268,1.48391 -4.0891,2.4388 -0.36642,0.9549 -0.16502,2.2374 0.44759,2.85 0.76445,0.76446 3.40338,0.37499 8.41301,-1.24159 4.01456,-1.2955 10.46099,-4.18864 14.32538,-6.42924 3.86441,-2.24059 10.92799,-7.96531 15.69683,-12.72163 5.81326,-5.79797 9.97579,-11.14144 12.63111,-16.21467 2.46463,-4.70888 4.16901,-6.95442 4.51258,-5.94538 0.30367,0.8918 1.06236,3.56723 1.686,5.94538 0.62364,2.37815 1.13204,6.51289 1.12977,9.18832 -0.004,3.38203 -0.95262,6.51148 -3.11664,10.26929 -1.7119,2.97269 -5.14657,7.70732 -7.63262,10.5214 -2.48605,2.8141 -8.58883,7.82377 -13.56173,11.13265 -4.9729,3.30883 -12.11375,7.23303 -15.86853,8.7204 -3.75478,1.48735 -10.71839,3.6727 -15.47469,4.85631 -6.3869,1.5894 -14.09817,2.3249 -29.49498,2.81324 -11.46594,0.36366 -21.11501,1.0946 -21.44238,1.6243 -0.32738,0.52971 0.0527,1.74382 0.84468,2.69807 1.26171,1.52027 3.79581,1.65329 20.47724,1.07493 10.50672,-0.36428 22.80665,-1.43861 27.44907,-2.39755 4.62646,-0.95561 12.49705,-3.21572 17.49023,-5.02246 4.99318,-1.80675 12.68216,-5.63749 17.08662,-8.51274 4.40445,-2.87527 10.38728,-7.56552 13.29518,-10.42277 2.90788,-2.85726 6.08512,-6.38177 7.06053,-7.83226 0.97542,-1.45045 2.06683,-2.34389 2.42534,-1.98537 0.35852,0.35853 -0.10472,3.60518 -1.0295,7.2148 -0.92473,3.60962 -2.87059,8.9098 -4.32411,11.77816 -1.4535,2.86838 -4.60873,7.70238 -7.01159,10.74225 -2.40288,3.03985 -7.6122,7.8414 -11.57631,10.67014 -4.05226,2.89162 -9.6307,5.77508 -12.74287,6.5867 -4.1405,1.07979 -15.17902,1.42625 -43.80407,1.37485 -23.13321,-0.0415 -38.67949,0.34215 -39.30747,0.9701 -0.57134,0.57134 -0.71197,1.56763 -0.31251,2.21398 0.51222,0.82889 23.96181,1.17518 79.57388,1.17518 78.12694,0 78.84759,-0.0197 78.84759,-2.16194 0,-1.98914 -0.72065,-2.16197 -9.01567,-2.16197 -4.95862,0 -17.12388,-0.31977 -27.03389,-0.71062 l -18.01823,-0.7106 7.30605,-4.35466 c 4.01832,-2.39508 10.24471,-7.30451 13.83641,-10.90991 4.20508,-4.2211 8.14065,-9.67452 11.05268,-15.31553 2.48725,-4.81816 5.26427,-11.60893 6.17111,-15.09057 0.94457,-3.6264 1.64883,-10.93638 1.64883,-17.11411 0,-6.36009 -0.72058,-13.65709 -1.75657,-17.78797 -0.96611,-3.85226 -3.13498,-10.34684 -4.81974,-14.43239 -1.68474,-4.08555 -6.34765,-12.87958 -10.362,-19.54228 -4.01437,-6.66269 -8.40088,-14.79241 -9.74781,-18.066 -1.34694,-3.27361 -2.46052,-7.45188 -2.47464,-9.28503 -0.0142,-1.83317 0.2827,-3.64139 0.6596,-4.01827 0.37688,-0.37689 1.9018,0.2717 3.3887,1.4413 1.48692,1.1696 4.13929,2.12655 5.89416,2.12655 1.84926,0 5.16779,1.41986 7.89338,3.37723 3.73726,2.68389 5.32694,3.22057 7.74328,2.6141 1.67231,-0.41973 5.03953,-2.84936 7.4827,-5.39919 2.44316,-2.54985 4.78101,-5.98634 5.19522,-7.63666 0.67434,-2.68677 0.0121,-3.6925 -6.33355,-9.61566 -3.89766,-3.63827 -7.08665,-7.3553 -7.08665,-8.26005 0,-0.90475 -2.46076,-4.05893 -5.46837,-7.00926 -5.15861,-5.06041 -5.44945,-5.63978 -5.13464,-10.22865 0.29753,-4.33689 0.0992,-4.83092 -1.82824,-4.55553 -1.18907,0.1699 -3.87342,1.04422 -5.96521,1.94297 -3.59573,1.54492 -4.14868,1.48133 -10.13343,-1.16541 -3.48157,-1.53972 -6.60911,-2.52053 -6.95007,-2.17958 -0.34095,0.34096 -0.0646,3.8606 0.61365,7.82145 l 1.23356,7.20152 -3.7946,5.16931 c -2.08704,2.84311 -4.77075,7.94655 -5.9638,11.34099 -1.19305,3.39444 -2.43817,9.38029 -2.76694,13.3019 -0.44606,5.32068 -0.0197,9.31646 1.67958,15.7449 1.25254,4.73809 2.87306,10.67869 3.60115,13.20135 1.04029,3.60439 1.04365,6.22047 0.0156,12.21571 -0.71953,4.19599 -2.33392,9.67182 -3.58753,12.16851 -1.25362,2.4967 -4.23188,7.09729 -6.61833,10.22358 -2.38646,3.12627 -7.60811,7.85742 -11.60369,10.51367 -3.99558,2.65624 -10.08952,5.91055 -13.5421,7.23179 l -6.27743,2.40222 -1.72343,-2.5625 c -0.94791,-1.40939 -3.45935,-4.32108 -5.581,-6.47042 -2.12164,-2.14935 -5.82639,-4.49779 -8.23275,-5.21875 -2.40636,-0.72097 -6.29063,-1.31084 -8.63171,-1.31084 -2.42664,0 -6.70248,1.21889 -9.94621,2.8353 -3.64198,1.81486 -6.70162,4.36438 -8.50129,7.08388 -1.54638,2.33672 -3.38947,6.53328 -4.09576,9.32569 l -1.28422,5.07713 -5.56044,0.32673 c -3.05825,0.1797 -5.56044,-0.11828 -5.56044,-0.66209 0,-0.54385 -1.33772,-2.67004 -2.9727,-4.72485 -2.95707,-3.71638 -2.97097,-3.81304 -2.64584,-18.37718 l 0.32687,-14.64119 6.58782,-0.68856 c 3.62332,-0.37871 12.37425,-0.68856 19.44657,-0.68856 7.45733,0 16.2988,0.71055 21.04822,1.69159 4.50424,0.93037 10.85976,2.87251 14.12342,4.31584 3.26367,1.44335 6.29961,2.39828 6.74651,2.12205 0.44694,-0.27621 2.56231,-4.09046 4.70084,-8.4761 2.13852,-4.38564 5.08857,-11.57423 6.55564,-15.97464 1.46707,-4.40042 3.43411,-11.75016 4.37121,-16.33276 0.99141,-4.84824 1.70381,-13.73502 1.70381,-21.25422 0,-7.10724 -0.6979,-16.49171 -1.55089,-20.85441 -0.85297,-4.3627 -2.55551,-10.80536 -3.78342,-14.31702 -1.22789,-3.51169 -2.23254,-6.97095 -2.23254,-7.68727 0,-0.71631 3.87737,-7.25281 8.61639,-14.52556 l 8.61639,-13.22317 5.9059,-0.16865 c 4.92949,-0.14077 6.45156,-0.69145 9.2063,-3.33069 1.81522,-1.73912 3.59785,-4.74768 3.96142,-6.68567 0.36356,-1.93798 0.11235,-5.18633 -0.5584,-7.21854 -0.67068,-2.0322 -2.3736,-4.7792 -3.78425,-6.10444 -1.43382,-1.34701 -4.58623,-2.68066 -7.14884,-3.02438 -3.2491,-0.43579 -5.60352,-0.0659 -8.08495,1.27055 -1.92551,1.03695 -4.1426,3.08434 -4.92687,4.54977 -1.0034,1.87487 -2.08256,2.51296 -3.64182,2.15334 -1.21873,-0.28107 -9.8555,-1.85853 -19.19284,-3.50548 -16.2741,-2.87047 -17.02757,-3.11661 -18.19912,-5.945 -0.67218,-1.62279 -2.6303,-3.53381 -4.35138,-4.2467 -1.72107,-0.71289 -4.34129,-0.99195 -5.82272,-0.62013 -1.48144,0.37182 -3.67985,1.73474 -4.88539,3.02874 -1.29931,1.39463 -2.19187,3.83035 -2.19187,5.98142 0,2.41142 0.89008,4.51881 2.65332,6.28203 1.86889,1.8689 3.84565,2.65331 6.68642,2.65331 2.63954,0 4.88821,-0.8033 6.50773,-2.32477 l 2.47462,-2.32476 18.49665,3.03882 c 17.72547,2.91213 18.53876,3.15552 19.50717,5.83796 0.5558,1.53951 1.52184,3.80521 2.14675,5.03488 0.951,1.87131 0.27673,3.54526 -4.1365,10.2693 -2.89997,4.41842 -6.37963,9.85766 -7.73255,12.08718 -1.3529,2.22951 -2.785,4.05185 -3.1824,4.04962 -0.39742,-0.002 -1.69546,-2.29659 -2.88454,-5.09859 -1.18907,-2.80198 -2.32409,-5.47558 -2.52228,-5.94133 -0.19817,-0.46574 0.65309,-0.84679 1.89172,-0.84679 1.50521,0 2.25203,-0.6928 2.25203,-2.08911 0,-1.14901 -0.85127,-2.32527 -1.8917,-2.61389 -1.04045,-0.28864 -4.81036,-0.84805 -8.37759,-1.24316 -3.56722,-0.39511 -18.40365,-2.37473 -32.96983,-4.39916 -14.56618,-2.02443 -28.05052,-3.94934 -29.96517,-4.27756 l -3.48121,-0.59679 -0.30222,-13.73947 c -0.28415,-12.9181 -0.43147,-13.73949 -2.46417,-13.73949 -2.02778,0 -2.18081,0.82181 -2.46547,13.24198 -0.20604,8.9895 -0.69805,13.24198 -1.53204,13.24198 -0.67567,0 -20.41796,-2.71629 -43.87173,-6.03618 -29.56475,-4.18492 -42.98856,-5.69086 -43.76919,-4.91022 -0.78064,0.78064 -0.73475,1.59736 0.14963,2.66297 0.70159,0.84536 2.62788,1.80745 4.28066,2.13803 2.51088,0.50217 3.92899,2.36778 8.62358,11.34485 3.09019,5.90914 5.61854,10.92654 5.61854,11.14979 0,0.22326 -2.17161,0.40592 -4.82581,0.40592 -3.03065,0 -5.48501,0.65921 -6.59793,1.77215 -0.97469,0.97468 -2.0994,3.37221 -2.49937,5.32784 -0.67505,3.30063 -1.55285,3.92287 -12.23629,8.67386 -11.18072,4.97215 -11.56141,5.06032 -13.34414,3.09044 -1.00929,-1.11525 -3.5105,-2.58068 -5.55823,-3.2565 -2.04775,-0.6758 -5.35686,-0.92228 -7.35357,-0.54769 -2.23813,0.41988 -4.905717,2.13359 -6.955897,4.46862 -2.59088,2.95083 -3.32462,4.79413 -3.32147,8.34409 0.002,2.6028 0.90449,6.03333 2.10412,8.00073 1.15503,1.8943 3.15375,4.00811 4.44158,4.69733 1.324437,0.70882 5.310837,1.09094 9.177377,0.87973 l 6.83584,-0.37343 12.50005,12.32477 c 12.0756,11.90627 12.50005,12.48171 12.50005,16.94694 0,3.7059 0.56461,5.06632 2.84821,6.8626 1.61694,1.2719 4.442,2.24042 6.535,2.24042 2.47307,0 4.56028,-0.87349 6.3401,-2.65332 1.86888,-1.86889 2.65332,-3.84566 2.65332,-6.68643 0,-2.65316 -0.80422,-4.88918 -2.35039,-6.53501 -1.84358,-1.96238 -3.53349,-2.51097 -7.8371,-2.54407 l -5.48671,-0.0423 -12.74267,-12.3832 c -11.08874,-10.77593 -12.597,-12.65534 -11.6205,-14.47995 0.61716,-1.15321 1.12213,-3.51809 1.12213,-5.25528 0,-2.97653 0.66657,-3.45215 11.56663,-8.25333 9.70278,-4.27383 11.97541,-4.90853 14.10358,-3.9389 1.39532,0.63577 3.99552,1.15594 5.77818,1.15594 1.99743,0 4.25644,-1.01526 5.88685,-2.64568 2.52356,-2.52353 2.69588,-2.55185 3.73334,-0.61337 0.59819,1.11776 2.29052,7.00006 3.76069,13.07175 1.4702,6.0717 3.23559,16.03836 3.92309,22.14816 0.94681,8.41435 0.94602,14.01178 -0.004,23.07818 -0.68929,6.58324 -2.40446,16.50769 -3.8115,22.05435 -1.40703,5.54666 -4.07134,13.7195 -5.9207,18.16186 -1.84935,4.44237 -6.08548,12.84327 -9.41358,18.66866 -4.24863,7.43663 -5.71102,10.9317 -4.9094,11.73332 0.80163,0.80161 3.33125,10e-4 8.49226,-2.68744 4.0428,-2.10604 12.21318,-5.63697 18.15638,-7.84652 5.94321,-2.20955 13.72625,-4.9086 17.29566,-5.99787 3.56939,-1.08928 11.35421,-3.17538 17.29959,-4.63581 5.94538,-1.46042 12.75555,-2.9745 15.1337,-3.36461 2.37815,-0.3901 5.17518,-0.95936 6.21562,-1.26499 1.72376,-0.50635 1.89171,0.54192 1.89171,11.80618 v 12.36186 l -7.37376,-0.12801 c -6.35699,-0.11042 -7.99367,0.28204 -11.86942,2.84587 -2.47259,1.63564 -5.47812,4.89973 -6.67894,7.25354 -1.20087,2.35376 -2.18336,4.96783 -2.18336,5.80901 0,0.84817 -1.5047,1.83037 -3.37805,2.20502 -1.85794,0.37159 -4.65497,0.66025 -6.21563,0.64145 -2.17031,-0.0261 -3.5024,-1.13076 -5.66478,-4.69756 -1.88899,-3.11581 -4.42366,-5.43619 -7.63789,-6.99218 -2.64587,-1.28085 -6.23801,-2.31813 -7.98256,-2.30508 -1.74455,0.0131 -5.13778,0.91673 -7.54052,2.00814 -2.40275,1.09142 -5.68637,3.55043 -7.29692,5.46446 -1.61057,1.91406 -3.23891,4.71772 -3.61858,6.2304 -0.66246,2.63944 -0.92716,2.72248 -6.56556,2.0598 -3.2314,-0.37979 -7.90664,-1.71049 -10.38942,-2.95711 -2.48279,-1.24662 -6.08424,-3.4436 -8.00324,-4.88219 -1.91899,-1.43857 -4.71671,-4.7104 -6.21716,-7.27071 -1.50044,-2.56033 -3.25946,-7.30108 -3.90893,-10.53503 -0.98114,-4.88543 -0.79805,-8.09787 1.08251,-18.99359 1.24485,-7.21252 2.25268,-14.9811 2.23962,-17.26353 -0.0131,-2.28242 -0.92483,-6.13385 -2.02615,-8.55873 -1.10133,-2.42489 -3.34548,-5.46534 -4.98703,-6.75657 -1.64153,-1.29124 -4.86451,-2.91093 -7.16216,-3.59933 -3.16393,-0.94793 -5.19064,-0.94808 -8.352947,-6.4e-4 -2.29648,0.68803 -5.51553,2.58919 -7.15343,4.22477 -1.63792,1.63559 -3.40729,4.09995 -3.93194,5.47637 -0.52465,1.37642 -0.9539,4.05944 -0.9539,5.96225 0,1.90282 0.88886,5.11702 1.97524,7.14271 1.08638,2.02566 3.64018,4.59452 5.67515,5.70856 2.03492,1.11403 5.03759,1.84393 6.67256,1.62196 2.661797,-0.36136 2.972697,-0.0703 2.972697,2.78228 0,1.75222 -1.67737,9.57262 -3.727467,17.37868 -2.05011,7.80605 -4.03739,17.59791 -4.41617,21.75968 -0.46696,5.13073 -0.15001,10.1172 0.98451,15.48852 0.92026,4.35693 2.92769,10.66184 4.46094,14.0109 1.533247,3.34907 4.688247,8.55264 7.011097,11.56346 2.32283,3.01085 6.47596,7.16209 9.22919,9.22498 4.70515,3.52543 4.85459,3.78829 2.48798,4.37598 -1.38481,0.34391 -9.09515,0.40554 -17.13406,0.137 -12.420317,-0.41492 -14.829737,-0.23099 -16.037477,1.22425 -0.78172,0.9419 -1.10748,2.22028 -0.72393,2.84087 0.44667,0.72274 8.44554,1.12832 22.253097,1.12832 11.85567,0 21.55577,0.43101 21.55577,0.95782 0,0.52677 -1.99349,3.94308 -4.43,7.59176 -2.45306,3.6735 -4.15659,7.34644 -3.81734,8.23052 0.33694,0.8781 1.28456,1.59653 2.10578,1.59653 0.8212,0 4.24474,-4.13473 7.60782,-9.18831 l 6.11471,-9.18832 h 19.57487 19.57488 l -1.91156,2.97269 c -1.05136,1.63499 -2.57637,3.94558 -3.38891,5.13465 -1.13793,1.66522 -2.70013,2.16505 -6.79935,2.17541 -3.67876,0.01 -6.25875,0.70707 -8.35592,2.25989 -1.66867,1.23554 -3.71742,4.17925 -4.55282,6.5416 -0.8405,2.37684 -1.20273,5.55475 -0.81104,7.11537 0.38931,1.5511 1.93253,4.27567 3.42941,6.0546 1.80861,2.14943 4.14264,3.4745 6.95782,3.95011 2.91067,0.49176 5.37198,0.17678 7.86577,-1.00659 1.99623,-0.94729 4.45942,-3.12724 5.47373,-4.84434 1.01432,-1.71711 1.84422,-4.84823 1.84422,-6.95804 0,-2.1098 -0.5559,-5.05608 -1.23534,-6.54728 -1.09539,-2.40413 -0.71364,-3.512 3.3699,-9.77966 l 4.60525,-7.06841 h 21.53062 21.53064 l -1.27899,2.43222 c -0.70346,1.3377 -2.70046,4.5152 -4.4378,7.0611 -2.87304,4.21016 -3.47077,4.57038 -6.60737,3.98196 -1.89673,-0.35584 -4.73359,-0.15842 -6.30414,0.43872 -1.57058,0.59712 -4.11932,2.44856 -5.6639,4.11433 -2.1209,2.28729 -2.80833,4.16907 -2.80833,7.68753 0,2.56241 0.76114,6.13079 1.69141,7.92974 0.93029,1.79898 3.24089,3.94477 5.13466,4.76841 1.89376,0.82368 4.709,1.5166 6.25606,1.53987 1.54705,0.0232 4.45861,-1.06678 6.47012,-2.42233 z m -11.79698,-5.44212 c -1.39771,-1.4878 -2.35038,-3.8976 -2.35038,-5.94538 0,-2.0022 0.9049,-4.34841 2.16196,-5.60547 1.18907,-1.18908 3.60233,-2.16196 5.36278,-2.16196 1.90072,0 4.09608,0.96093 5.4049,2.36579 1.27747,1.3712 2.20405,3.83768 2.20405,5.86693 0,2.49481 -0.81864,4.1451 -2.84821,5.74154 -1.56653,1.23224 -3.91393,2.24043 -5.21647,2.24043 -1.30253,0 -3.42591,-1.12585 -4.71863,-2.50188 z m -48.34107,-3.39437 c -1.45933,-1.45933 -2.65332,-3.91364 -2.65332,-5.45402 0,-1.5404 1.19399,-3.99472 2.65332,-5.45404 1.45931,-1.45932 3.89152,-2.65331 5.40489,-2.65331 1.51337,0 3.72445,0.97288 4.91353,2.16197 1.33835,1.33835 2.16196,3.60324 2.16196,5.94538 0,2.34212 -0.82361,4.60701 -2.16196,5.94536 -1.18908,1.18909 -3.40016,2.16197 -4.91353,2.16197 -1.51337,0 -3.94558,-1.194 -5.40489,-2.65331 z m -15.31592,-33.88602 c -0.92484,-0.58771 1.26857,-4.72008 7.42871,-13.99561 l 8.74102,-13.16167 3.05715,1.5809 c 1.68144,0.86952 5.53767,1.58093 8.56942,1.58093 3.03174,0 6.8752,-0.70481 8.54104,-1.56625 1.66583,-0.86143 4.56032,-3.31057 6.43219,-5.44251 1.87186,-2.13195 3.41084,-4.95381 3.41994,-6.27084 0.008,-1.31703 0.38307,-2.97096 0.83103,-3.67541 0.44797,-0.70446 3.26225,-1.60555 6.25396,-2.00243 l 5.43952,-0.72156 1.10037,3.62388 c 1.03361,3.4039 0.68467,4.26363 -5.74851,14.1634 l -6.8489,10.53954 h -16.1324 c -10.04024,0 -16.39574,0.42611 -16.82975,1.12833 -0.38354,0.62059 -0.10944,1.83669 0.60905,2.70245 1.01503,1.22303 4.29069,1.57411 14.68628,1.57411 7.35893,0 13.37987,0.28974 13.37987,0.64387 0,0.35413 -1.04832,2.17828 -2.32958,4.05366 -1.28126,1.87539 -3.07678,4.01786 -3.99003,4.76104 -1.17191,0.95366 -6.60885,1.34633 -18.47925,1.33466 -9.25036,-0.008 -17.40936,-0.39182 -18.13113,-0.85049 z m 45.46607,-2.64613 c 0.94535,-1.33771 5.47314,-8.26949 10.06172,-15.40395 4.5886,-7.13445 8.44079,-13.11955 8.56041,-13.30022 0.11962,-0.18067 1.83746,0.65664 3.81741,1.86072 1.97993,1.20407 5.7035,2.50467 8.27459,2.89024 3.24059,0.48595 6.14961,0.13775 9.48232,-1.13504 2.79948,-1.06911 6.37396,-3.66596 8.55756,-6.21699 2.4908,-2.90995 3.98773,-5.96662 4.4581,-9.10327 0.6908,-4.60667 0.81105,-4.72629 4.90931,-4.88448 2.31066,-0.0891 4.74175,-0.21079 5.40242,-0.27024 0.66069,-0.0595 1.93425,1.72967 2.83013,3.97582 l 1.62889,4.08393 -7.8422,11.86049 -7.84223,11.86051 h -17.14795 c -10.60323,0 -17.20987,0.41257 -17.31012,1.08098 -0.0891,0.59455 -0.21079,1.68903 -0.27026,2.43221 -0.08,0.99996 3.90498,1.49172 15.32929,1.8917 l 15.43737,0.54049 -3.54661,5.12394 -3.54662,5.12392 -21.48115,0.0109 -21.48117,0.0109 z m -61.65061,-1.8843 c -3.08335,-1.76837 -8.13599,-5.7451 -11.22805,-8.83718 -3.45903,-3.45902 -7.02271,-8.57155 -9.26284,-13.28864 -2.30457,-4.85276 -4.1,-10.83006 -4.891687,-16.28543 -1.04279,-7.18528 -0.96134,-10.23677 0.489637,-18.34751 0.95725,-5.35085 3.00157,-14.34999 4.54294,-19.99811 1.73729,-6.36602 2.8886,-13.61124 3.02902,-19.06182 0.19051,-7.39432 -0.10823,-9.1644 -1.87902,-11.13118 -1.31968,-1.4658 -3.10413,-2.21871 -4.78103,-2.01726 -1.471527,0.17677 -2.885877,0.9616 -3.142987,1.74405 -0.25712,0.78246 0.54053,1.68624 1.77254,2.00843 1.232037,0.32218 2.539567,1.52948 2.905647,2.6829 0.36608,1.15341 0.0794,2.80343 -0.63705,3.66671 -0.71645,0.86326 -2.481287,1.56959 -3.921857,1.56959 -1.44056,0 -3.81321,-1.19399 -5.27253,-2.65332 -1.89882,-1.89881 -2.64648,-3.81997 -2.62927,-6.7561 0.0132,-2.25656 0.86449,-5.14036 1.89171,-6.40849 1.02721,-1.26814 2.93017,-2.84906 4.22881,-3.51319 1.29862,-0.66412 3.909647,-1.20749 5.802307,-1.20749 2.55601,0 4.52066,1.07951 7.63791,4.19674 4.00895,4.00897 4.19503,4.50472 4.15875,11.08003 -0.0208,3.7858 -0.73345,10.04514 -1.58348,13.90964 -0.85003,3.86451 -1.56261,10.46475 -1.58349,14.66726 -0.0209,4.20249 0.70234,10.13385 1.60721,13.1808 1.11087,3.74075 3.41155,7.47262 7.08407,11.49095 3.31355,3.62556 7.98375,7.22271 11.95138,9.20536 3.67387,1.83584 9.21711,3.56031 12.71755,3.95634 6.09652,0.68974 6.23298,0.78036 7.79954,5.17878 l 1.59446,4.47676 -6.60916,9.7288 c -3.63502,5.35085 -7.95865,12.03939 -9.60805,14.86346 -1.67412,2.86642 -3.78918,5.13015 -4.78787,5.1245 -0.98396,-0.006 -4.31176,-1.45699 -7.39511,-3.22538 z m 224.50419,-6.09203 c 0,-0.37384 1.68549,-2.54535 3.74555,-4.82558 2.06004,-2.28023 4.98531,-6.59242 6.50057,-9.58265 1.51525,-2.99024 3.71788,-9.45302 4.8947,-14.36178 1.31252,-5.47475 2.14261,-12.71088 2.14725,-18.71824 0.006,-6.34738 -0.79018,-13.00357 -2.25965,-18.91711 -1.24699,-5.01813 -4.41437,-13.70022 -7.03863,-19.29353 -2.62426,-5.59332 -6.28841,-12.63515 -8.14257,-15.64854 -1.85413,-3.01337 -4.60173,-8.65227 -6.10573,-12.53089 -2.24357,-5.78575 -2.74777,-8.99299 -2.80797,-17.86178 -0.0598,-8.82149 0.37614,-11.93258 2.37063,-16.91416 1.34421,-3.35742 4.3564,-8.27696 6.69374,-10.93233 3.98533,-4.52758 4.17108,-5.03631 2.98548,-8.17731 -0.69535,-1.84217 -0.92439,-3.68928 -0.50898,-4.10468 0.41541,-0.41541 1.75086,0.14572 2.96769,1.24691 2.13241,1.92982 2.33074,1.93229 5.48634,0.0682 1.80069,-1.06369 3.39956,-1.76497 3.55304,-1.55841 0.15352,0.20656 0.92372,1.99323 1.7116,3.97037 0.78788,1.97714 3.30402,5.0988 5.59145,6.93703 2.38274,1.91481 4.15896,4.28768 4.15896,5.55598 0,1.32585 2.7086,4.72798 6.75311,8.48226 6.645,6.16814 6.7272,6.31416 5.13465,9.12082 -0.89015,1.56877 -2.93616,3.83087 -4.54666,5.02688 l -2.92821,2.1746 -4.09815,-2.80507 c -2.254,-1.54277 -6.01507,-3.15366 -8.35797,-3.57975 -2.71282,-0.49335 -5.38548,-1.9928 -7.35951,-4.1289 l -3.09971,-3.35421 -2.08493,2.53454 c -1.14671,1.39399 -2.57341,4.34859 -3.17044,6.5658 -0.81129,3.01292 -0.6782,5.595 0.52687,10.22159 0.88681,3.40468 2.40698,7.74668 3.37814,9.64888 0.97117,1.90219 4.91515,8.78258 8.76439,15.28972 3.84925,6.50716 8.37995,15.28085 10.06823,19.49711 1.68826,4.21627 3.63656,10.08035 4.32957,13.03133 0.693,2.95095 1.29663,9.50013 1.3414,14.55369 0.0448,5.05357 -0.56624,11.86373 -1.3578,15.13371 -0.79159,3.26995 -2.51664,8.37757 -3.83348,11.35026 -1.31683,2.97269 -4.28774,7.88806 -6.602,10.92307 -2.31428,3.03501 -7.08049,8.02104 -10.59158,11.08004 -3.5111,3.05899 -6.79456,5.56183 -7.2966,5.56183 -0.50204,0 -0.91279,-0.30588 -0.91279,-0.67972 z M 164.25209,467.67519 c -1.83404,-0.82171 -4.43565,-2.88901 -5.78139,-4.59397 -2.02596,-2.56682 -2.3666,-4.07741 -1.98063,-8.78342 0.33152,-4.04227 1.2019,-6.46664 3.01419,-8.39575 1.40145,-1.49178 4.33899,-3.24888 6.52789,-3.90468 2.96687,-0.8889 4.97338,-0.86446 7.88363,0.096 2.14712,0.7086 4.84313,2.60748 5.99116,4.21973 1.14803,1.61225 2.38862,4.61748 2.75689,6.67829 0.45965,2.57217 0.065,4.90903 -1.25839,7.45352 -1.06038,2.0386 -3.14408,4.58679 -4.63041,5.66264 -1.48635,1.07583 -4.16177,2.20483 -5.94538,2.50886 -1.78362,0.30405 -4.74352,-0.11949 -6.57756,-0.94123 z m 9.06381,-8.45062 c 0.71344,-0.71344 1.29718,-2.56192 1.29718,-4.10771 0,-1.54579 -0.58374,-3.39428 -1.29718,-4.10771 -0.71345,-0.71345 -2.66964,-1.29718 -4.3471,-1.29718 -2.20423,0 -3.39132,0.74933 -4.28122,2.70245 -0.92111,2.02161 -0.92111,3.38328 0,5.40488 0.8899,1.95312 2.07699,2.70245 4.28122,2.70245 1.67746,0 3.63365,-0.58373 4.3471,-1.29718 z m 40.55432,4.60132 c -2.8613,-1.29907 -5.19854,-3.36064 -6.36303,-5.61252 -1.01232,-1.9576 -1.84057,-5.36398 -1.84057,-7.56978 0,-2.20578 0.91761,-5.57335 2.03913,-7.48346 1.12152,-1.91012 3.73406,-4.37923 5.80567,-5.4869 2.07161,-1.10769 5.23347,-2.01216 7.02636,-2.00994 1.79289,0.002 4.84517,0.97066 6.78286,2.15208 1.93768,1.18143 4.51857,3.73342 5.73532,5.67109 1.66752,2.65559 2.10257,4.79605 1.76686,8.69298 -0.30245,3.51097 -1.27566,6.0705 -3.03286,7.97641 -1.42311,1.54357 -4.15281,3.47346 -6.06595,4.28864 -1.91316,0.81519 -4.34535,1.47147 -5.40489,1.45841 -1.05954,-0.0131 -3.96155,-0.94771 -6.4489,-2.07701 z m 10.46784,-8.70903 c 1.18908,-1.18908 2.16196,-2.85184 2.16196,-3.69501 0,-0.84319 -0.30955,-2.33977 -0.68791,-3.32575 -0.37836,-0.98597 -1.90335,-2.25478 -3.38884,-2.81957 -1.99347,-0.75791 -3.37058,-0.58813 -5.25747,0.64822 -1.722,1.1283 -2.55654,2.70555 -2.55654,4.83182 0,2.03664 0.85246,3.75379 2.40249,4.83948 1.32135,0.92552 3.0239,1.68276 3.78342,1.68276 0.75952,0 2.35382,-0.97288 3.54289,-2.16195 z m 43.75952,6.06043 c -1.79467,-0.782 -4.78832,-3.15902 -6.65258,-5.28229 -1.86425,-2.12327 -3.72787,-5.40081 -4.14135,-7.28341 -0.41351,-1.88261 -0.4272,-5.58758 -0.0304,-8.23326 0.47245,-3.15044 1.90259,-6.15566 4.14457,-8.70913 1.88277,-2.14436 4.99612,-4.55603 6.91857,-5.35928 1.92244,-0.80325 5.05992,-1.46044 6.9722,-1.46044 1.91225,0 5.58307,1.01959 8.15733,2.26577 3.12087,1.51078 5.57588,3.79368 7.36764,6.85109 1.83328,3.12822 2.68719,6.20383 2.68719,9.67866 0,2.80134 -0.68625,6.40691 -1.52497,8.01236 -0.83873,1.60546 -2.9061,4.22578 -4.59417,5.82293 -1.68806,1.59716 -4.43857,3.4213 -6.11226,4.05366 -1.67367,0.63237 -4.59231,1.13073 -6.48587,1.10745 -1.89353,-0.0232 -4.91117,-0.68213 -6.70584,-1.46411 z m 10.6307,-10.54617 c 1.29863,-0.68355 2.71853,-1.77804 3.15532,-2.4322 0.43681,-0.65417 0.80165,-2.77033 0.81074,-4.70258 0.01,-2.08961 -0.85949,-4.38921 -2.1454,-5.67512 -1.18908,-1.18908 -3.60234,-2.16196 -5.36278,-2.16196 -1.90073,0 -4.09609,0.96093 -5.40489,2.36577 -1.21224,1.30119 -2.20407,3.75549 -2.20407,5.45403 0,1.83758 1.07453,4.16279 2.65331,5.74156 1.45931,1.45931 3.43706,2.65331 4.39498,2.65331 0.9579,0 2.80418,-0.55928 4.10279,-1.24281 z M 155.15547,422.42057 c 0,-0.27402 2.13247,-5.06887 4.7388,-10.65519 2.60636,-5.58632 5.96029,-14.04846 7.45316,-18.80477 1.49287,-4.7563 3.53403,-13.48626 4.53589,-19.39991 1.02469,-6.0485 1.79598,-16.21552 1.7631,-23.24104 -0.0321,-6.86891 -0.81422,-16.86689 -1.73793,-22.21775 -0.92372,-5.35083 -2.38099,-12.50799 -3.23836,-15.90482 -0.85738,-3.39681 -3.33709,-10.93664 -5.51046,-16.75515 -2.17336,-5.81852 -5.84172,-14.34906 -8.15192,-18.95673 -3.10238,-6.18769 -3.78487,-8.37757 -2.61095,-8.37757 0.87415,0 5.37916,0.51492 10.01111,1.14426 4.63196,0.62933 9.46991,1.35665 10.751,1.61623 1.67641,0.33968 3.84228,3.42749 7.72745,11.01673 2.96899,5.79963 6.94568,14.92275 8.83706,20.27359 1.89137,5.35084 4.38057,13.86355 5.53154,18.91711 1.15095,5.05357 2.40052,15.11275 2.77682,22.35371 0.43636,8.39731 0.20913,16.22723 -0.62745,21.61957 -0.72137,4.64979 -2.49195,12.98104 -3.93459,18.51387 -1.44265,5.53285 -4.37819,14.1454 -6.52344,19.13901 -3.75201,8.73385 -4.0917,9.14903 -8.92755,10.91148 -2.76492,1.00769 -8.43223,3.25171 -12.59399,4.98668 -4.16177,1.73498 -8.1749,3.4165 -8.91808,3.73672 -0.74317,0.32022 -1.35121,0.35802 -1.35121,0.084 z m 38.61839,-22.62553 c 2.0495,-5.4564 4.67184,-13.60427 5.8274,-18.10638 1.15557,-4.50212 2.60917,-13.05005 3.23024,-18.99543 0.62106,-5.94538 0.82193,-15.18775 0.44635,-20.5386 -0.37557,-5.35083 -1.40915,-13.78863 -2.29686,-18.75065 -0.88771,-4.96203 -3.28278,-14.11611 -5.32236,-20.34242 -2.0396,-6.22631 -5.88887,-15.52086 -8.55397,-20.65453 -2.66508,-5.13367 -4.63088,-9.5487 -4.36843,-9.81115 0.26246,-0.26246 5.36907,0.27722 11.34801,1.19928 5.97893,0.92207 11.56922,2.25613 12.42285,2.96458 0.85363,0.70846 4.24448,6.71298 7.53522,13.3434 3.58163,7.21659 7.03159,16.2073 8.59526,22.39964 1.43666,5.68939 3.13666,14.11568 3.77778,18.7251 0.64111,4.60942 1.16427,12.11546 1.1626,16.68011 -0.002,4.56465 -0.53955,12.67733 -1.19528,18.02817 -0.65572,5.35084 -2.37778,13.86354 -3.82679,18.91712 -1.44902,5.05358 -3.70818,11.34548 -5.02035,13.982 l -2.38578,4.79368 -11.89076,2.99151 c -6.53991,1.64532 -12.18793,3.01485 -12.55113,3.04341 -0.3632,0.0285 1.01649,-4.41244 3.066,-9.86884 z m 99.74681,3.90818 c -2.08088,-0.81319 -5.89143,-2.01171 -8.46791,-2.66338 -3.76494,-0.95226 -4.53659,-1.54324 -3.93105,-3.01058 0.41437,-1.00413 2.22111,-5.96045 4.01498,-11.01403 1.79386,-5.05357 3.51178,-12.27782 3.8176,-16.05388 0.50219,-6.20082 0.36677,-6.8288 -1.3987,-6.48586 -1.49382,0.29016 -2.54409,2.80108 -4.45432,10.64898 -1.37476,5.64811 -3.78229,13.30955 -5.35004,17.0254 l -2.85045,6.75612 h -11.31872 c -8.6358,0 -11.18474,-0.32028 -10.75346,-1.35122 0.3109,-0.74317 1.77644,-5.24274 3.25679,-9.99905 1.48034,-4.7563 3.31961,-11.56646 4.08727,-15.13369 0.82565,-3.83664 1.3783,-13.55048 1.35299,-23.78152 -0.0364,-14.71829 -0.46141,-19.08818 -2.85204,-29.32464 -1.54507,-6.61593 -4.33842,-15.85831 -6.20745,-20.53858 -1.86902,-4.68028 -4.60498,-10.57697 -6.07991,-13.10377 l -2.68171,-4.59414 2.47777,0.0232 c 1.36277,0.0128 6.73642,0.66372 11.94147,1.44643 5.20502,0.78268 9.63309,1.62345 9.84017,1.86836 0.20706,0.24489 2.12065,3.60713 4.25243,7.47163 2.13177,3.8645 5.32095,11.33582 7.08706,16.60294 1.76611,5.26714 3.74174,10.10721 4.39024,10.75573 0.85156,0.85155 1.53965,0.81868 2.47662,-0.11828 1.00928,-1.00929 0.75598,-3.15807 -1.14045,-9.67476 -1.34085,-4.60751 -4.10618,-11.74934 -6.14518,-15.87074 -2.03899,-4.12139 -3.49827,-7.70245 -3.24283,-7.95789 0.25545,-0.25544 4.62069,0.15392 9.70054,0.90966 5.62865,0.83742 9.83055,2.04567 10.75803,3.09349 0.83707,0.94566 3.28127,5.05606 5.43158,9.13421 l 3.90962,7.41484 -2.39518,3.93544 c -1.31735,2.16449 -4.48281,7.21891 -7.03436,11.23203 l -4.63918,7.29661 h -5.32903 c -4.14753,0 -6.06191,0.61665 -8.63452,2.78136 -1.91032,1.60744 -3.79589,4.60272 -4.46745,7.09672 -0.84106,3.12342 -0.82676,5.33116 0.0518,7.99305 0.66756,2.02271 2.65492,4.89035 4.41636,6.37248 1.76142,1.48216 4.81217,2.99678 6.77944,3.36584 2.20238,0.41317 5.08879,0.0393 7.51137,-0.97291 2.18194,-0.91168 4.90624,-3.23781 6.11609,-5.22216 1.2519,-2.05337 2.1833,-5.47394 2.18562,-8.0266 0.002,-2.84265 -0.79039,-5.45835 -2.19676,-7.24627 l -2.20081,-2.79787 6.1772,-9.50891 6.17721,-9.50891 2.40916,7.56685 c 1.32504,4.16175 3.02407,12.34621 3.77561,18.18768 1.09143,8.48332 1.09827,12.9279 0.0339,22.08405 -0.73286,6.30477 -2.82027,16.11858 -4.63868,21.8085 -1.81842,5.68992 -4.71419,13.14234 -6.43508,16.56093 -1.72087,3.41859 -3.72991,6.16834 -4.46453,6.11057 -0.73461,-0.0576 -3.03821,-0.77039 -5.11909,-1.58358 z m -68.04378,-10.47236 c 1.67376,-4.90494 3.89145,-12.80959 4.92818,-17.5659 1.37306,-6.29938 1.88005,-13.49146 1.86693,-26.48396 -0.0143,-14.16027 -0.50302,-20.116 -2.37138,-28.89851 -1.29436,-6.08432 -3.62325,-14.59701 -5.17536,-18.91712 -1.55209,-4.32011 -4.71179,-11.62466 -7.02154,-16.23234 -2.30976,-4.60766 -3.74289,-8.37757 -3.18474,-8.37757 0.55816,0 4.81993,0.49741 9.47062,1.10536 4.6507,0.60797 9.53262,1.34246 10.84872,1.63221 1.37893,0.30359 3.59438,2.57693 5.22817,5.36478 1.55938,2.66088 4.45825,8.68631 6.44195,13.38986 1.98372,4.70355 4.61163,12.37206 5.83981,17.04113 1.2282,4.66906 2.72126,11.65108 3.31794,15.51556 0.59669,3.8645 1.07159,12.37721 1.05534,18.91713 -0.0162,6.53992 -0.70122,15.65794 -1.52214,20.2623 -0.82092,4.60433 -3.0279,12.97995 -4.90437,18.61246 -3.25569,9.77243 -3.56892,10.26415 -6.84727,10.74858 -1.88952,0.27921 -6.93429,1.02435 -11.21057,1.65587 -4.27628,0.63153 -8.23148,1.14823 -8.7893,1.14823 -0.55781,0 0.35524,-4.01314 2.02901,-8.91807 z m -79.43253,-30.61485 c -0.93427,-0.93427 -1.69867,-2.30063 -1.69867,-3.03633 0,-0.7357 0.65397,-2.23201 1.45327,-3.32512 1.07054,-1.46406 2.20928,-1.79773 4.32391,-1.267 2.24598,0.56372 2.87064,1.37464 2.87064,3.72664 0,1.65339 -0.58373,3.58987 -1.29717,4.30332 -0.71345,0.71344 -1.89481,1.29717 -2.62524,1.29717 -0.73043,0 -2.09247,-0.76439 -3.02674,-1.69868 z m 134.78825,-12.92559 c -1.29763,-0.90891 -2.6765,-3.34326 -3.06417,-5.40966 -0.49598,-2.64378 -0.17169,-4.57084 1.09437,-6.50305 0.98955,-1.51026 3.0541,-3.22304 4.58788,-3.80618 1.53377,-0.58315 3.71378,-0.76666 4.84443,-0.40779 1.13066,0.35885 3.01217,1.67907 4.18114,2.9338 1.32744,1.42484 2.12539,3.79871 2.12539,6.32296 0,3.07872 -0.67858,4.5754 -2.84823,6.28203 -1.56652,1.23224 -4.1337,2.24042 -5.70485,2.24042 -1.57115,0 -3.91833,-0.74363 -5.21596,-1.65253 z M 100.71184,324.24005 c -2.204537,-1.7341 -2.848227,-3.19035 -2.848227,-6.44377 0,-2.93202 0.71555,-4.86997 2.365787,-6.40741 1.33846,-1.24696 3.83837,-2.20406 5.75695,-2.20406 2.14707,0 4.25344,0.91785 5.74155,2.50187 1.51785,1.61569 2.35038,3.88524 2.35038,6.40741 0,2.93169 -0.71019,4.46419 -2.84822,6.14596 -1.56653,1.23222 -3.93312,2.2404 -5.25911,2.2404 -1.326,0 -3.6926,-1.00818 -5.25911,-2.2404 z m 46.4135,-23.23979 c -0.93427,-0.93426 -1.69867,-2.35884 -1.69867,-3.16572 0,-0.80688 0.7644,-2.23145 1.69867,-3.16572 0.93427,-0.93429 2.35885,-1.69868 3.16573,-1.69868 0.80687,0 2.23145,0.76439 3.16572,1.69868 0.93427,0.93427 1.69868,2.18236 1.69868,2.7735 0,0.59116 -0.50356,2.01574 -1.11901,3.16572 -0.61546,1.14998 -2.04004,2.0909 -3.16573,2.0909 -1.12569,0 -2.81112,-0.76441 -3.74539,-1.69868 z m 182.0676,-28.56871 c -1.18907,-1.18908 -2.16195,-3.58149 -2.16195,-5.31648 0,-1.73499 0.30217,-3.94195 0.67149,-4.90439 0.36931,-0.96242 2.02819,-2.45144 3.6864,-3.30892 2.3454,-1.21286 3.7617,-1.29875 6.37771,-0.38682 1.84951,0.64475 3.83894,2.062 4.42092,3.14947 0.58199,1.08744 1.05816,3.37675 1.05816,5.08735 0,1.71059 -0.99183,4.17477 -2.20407,5.47596 -1.44729,1.55348 -3.48865,2.36579 -5.94538,2.36579 -2.30002,0 -4.57419,-0.83288 -5.90328,-2.16196 z m -57.75511,-13.58944 c -0.93428,-0.93427 -1.69868,-2.15037 -1.69868,-2.70245 0,-0.55206 0.98403,-1.98778 2.18673,-3.19049 1.76351,-1.76351 2.61218,-1.95903 4.38497,-1.01026 1.20904,0.64704 2.45146,1.83629 2.76092,2.64274 0.30946,0.80646 0.0215,2.47717 -0.63958,3.71272 -0.66125,1.23552 -2.12327,2.24642 -3.24896,2.24642 -1.12571,0 -2.81112,-0.76441 -3.7454,-1.69868 z"
         style="fill:#318ce7;fill-opacity:1;stroke-width:1.08098"
         id="path1" />
      <path
         d="m 458.72772,365.78861 c 3.4093,-0.55332 8.2332,-1.87808 10.7197,-2.94392 2.4865,-1.06583 6.5975,-3.85199 9.1355,-6.19146 2.538,-2.33946 5.5879,-6.0738 6.7775,-8.29852 1.7809,-3.33035 2.1635,-5.72327 2.1657,-13.54495 0,-8.52343 -0.2748,-9.9722 -2.6976,-14.09352 -1.4853,-2.52643 -4.2771,-5.79606 -6.2041,-7.26583 -1.927,-1.46978 -5.5111,-3.53284 -7.9647,-4.58458 -2.4536,-1.05174 -9.3368,-3.09787 -15.2959,-4.54696 -5.9592,-1.44908 -12.7597,-3.55253 -15.1122,-4.67432 -2.50915,-1.19649 -4.92263,-3.28762 -5.83848,-5.05868 -0.98804,-1.91067 -1.33954,-4.20073 -0.95741,-6.23766 0.33209,-1.77022 1.6791,-4.22877 2.99334,-5.46344 1.31424,-1.23466 4.32705,-2.68018 6.69515,-3.21226 2.3682,-0.53208 6.1235,-0.66566 8.3452,-0.29684 2.2217,0.36882 5.2373,1.28338 6.7012,2.03236 1.4639,0.74897 3.5703,2.51689 4.6809,3.92871 1.1105,1.41182 2.3213,3.94284 2.6907,5.6245 0.6101,2.77796 0.9479,3.00228 3.6941,2.45304 1.6624,-0.33249 6.3989,-0.60452 10.5254,-0.60452 h 7.5028 l -0.6528,-4.08264 c -0.3591,-2.24546 -1.7599,-6.2673 -3.113,-8.93743 -1.353,-2.67014 -4.1107,-6.4579 -6.1282,-8.41726 -2.0175,-1.95936 -6.0199,-4.67501 -8.8942,-6.03478 -2.8743,-1.35977 -8.4304,-2.96947 -12.3467,-3.57712 -5.2249,-0.81067 -9.0509,-0.80615 -14.3707,0.017 -3.9875,0.61699 -9.5,2.15472 -12.25,3.41718 -2.75,1.26246 -6.47133,3.53974 -8.26961,5.06062 -1.79829,1.52088 -4.46368,4.80275 -5.92309,7.29304 -2.06193,3.51843 -2.75233,6.23554 -3.09693,12.18831 -0.3684,6.36402 -0.065,8.54021 1.79264,12.85844 1.22985,2.85886 4.01844,6.80818 6.19687,8.77626 2.17843,1.96808 6.06213,4.48613 8.63045,5.59566 2.56832,1.10952 9.71139,3.30574 15.87347,4.88047 6.1621,1.57473 12.5616,3.56526 14.221,4.42339 1.6595,0.85813 3.9302,2.54028 5.0462,3.73811 1.3672,1.46749 2.029,3.54023 2.029,6.35446 0,2.67319 -0.7255,5.09896 -2.0156,6.73905 -1.1086,1.40936 -3.6946,3.11657 -5.7467,3.79381 -2.052,0.67724 -6.2075,1.2003 -9.2344,1.16234 -3.0268,-0.0379 -6.8533,-0.58811 -8.5033,-1.22257 -1.65,-0.63446 -4.22547,-2.3226 -5.72327,-3.75143 -1.4978,-1.42882 -3.41432,-4.67844 -4.25895,-7.22137 l -1.53568,-4.6235 -10.24105,0.39698 c -5.63258,0.21834 -10.38956,0.53259 -10.57107,0.69834 -0.18151,0.16574 0.39843,3.15285 1.28876,6.638 0.89033,3.48516 2.67749,7.94068 3.97146,9.90117 1.29398,1.96049 3.86104,5.07287 5.70458,6.91641 1.84353,1.84354 6.05488,4.61554 9.35855,6.16001 3.30367,1.54447 8.48167,3.21698 11.50667,3.71669 3.025,0.49971 7.075,0.95777 9,1.01791 1.925,0.0601 6.2895,-0.34337 9.6988,-0.89669 z m 87.8273,-0.0683 c 3.2414,-0.59921 8.0325,-2.17337 10.6468,-3.49814 2.6143,-1.32477 6.3059,-3.77195 8.2037,-5.43817 1.8977,-1.66622 4.8027,-5.15456 6.4556,-7.75186 1.6528,-2.5973 3.7749,-7.39998 4.7157,-10.67261 1.2572,-4.37358 1.567,-8.04366 1.1689,-13.8508 -0.4171,-6.08518 -1.2565,-9.35298 -3.6533,-14.22146 -1.9799,-4.02176 -5.1047,-8.14237 -8.591,-11.3286 -3.2163,-2.9396 -7.8525,-5.93292 -11.2258,-7.24803 -4.6375,-1.80791 -7.7734,-2.24332 -16.2467,-2.25579 -7.5254,-0.0111 -11.7748,0.46973 -15,1.69719 -2.475,0.94195 -6.83,3.30774 -9.6779,5.2573 -2.8478,1.94956 -6.7579,5.8747 -8.6891,8.72254 -1.9312,2.84784 -4.2683,7.54905 -5.1935,10.44714 -1.2321,3.85904 -1.5686,7.60584 -1.2575,14 0.3237,6.65366 1.045,10.0809 3.0318,14.4059 1.4338,3.12133 4.4301,7.6529 6.6582,10.07017 2.2282,2.41726 6.431,5.69833 9.3396,7.29127 2.9086,1.59293 7.7634,3.43614 10.7884,4.09602 3.025,0.65988 7.1049,1.23749 9.0663,1.28358 1.9615,0.0461 6.2184,-0.40645 9.4598,-1.00565 z m -15.5261,-18.50485 c -1.925,-0.83382 -4.7255,-2.68887 -6.2233,-4.12234 -1.4978,-1.43348 -3.4669,-4.84519 -4.3758,-7.58159 -1.1241,-3.38456 -1.4739,-6.70512 -1.0941,-10.38568 0.3276,-3.17383 1.6376,-7.25184 3.169,-9.86493 1.6338,-2.78795 4.076,-5.20216 6.5275,-6.45285 2.4594,-1.25468 5.8855,-1.99692 9.2069,-1.99457 3.4423,0.002 6.3844,0.67119 8.424,1.91486 1.7238,1.05112 4.3091,3.45156 5.7451,5.33433 1.4361,1.88276 3.0195,5.63357 3.5188,8.33513 0.4992,2.70157 0.5815,6.93694 0.1827,9.41194 -0.3987,2.475 -1.4339,5.85106 -2.3005,7.50236 -0.8665,1.6513 -2.4256,3.77164 -3.4645,4.71186 -1.039,0.94023 -3.5456,2.40167 -5.5703,3.24764 -2.0247,0.84598 -5.1582,1.52053 -6.9634,1.499 -1.8051,-0.0215 -4.8571,-0.72135 -6.7821,-1.55516 z m 137.7296,16.38138 c 2.3556,-1.10726 5.4051,-3.34685 6.7766,-4.97687 l 2.4938,-2.96366 v 4.57672 4.57673 h 10.5122 10.5121 l -0.2621,-37.25 -0.2622,-37.25 -10.1832,-0.28425 -10.1832,-0.28424 -0.3168,23.28424 c -0.2906,21.35503 -0.4906,23.61567 -2.4143,27.28425 -1.1537,2.2 -3.5737,4.8625 -5.3778,5.91667 -1.8883,1.10336 -5.1518,1.91666 -7.6907,1.91666 -2.8254,0 -5.3852,-0.71442 -7.1223,-1.98775 -1.4914,-1.09326 -3.4985,-3.53076 -4.4601,-5.41666 -1.5192,-2.97918 -1.7487,-6.544 -1.75,-27.17892 l -0.002,-23.75 h -10.5 -10.5 v 26.46505 c 0,21.62205 0.2933,27.34068 1.6028,31.25 0.8816,2.63172 2.6945,6.23446 4.0289,8.00608 1.3343,1.77162 3.9009,4.34603 5.7034,5.72091 1.8026,1.37488 5.7271,3.17737 8.7212,4.00554 3.4804,0.96269 7.4177,1.29782 10.917,0.92922 3.0104,-0.31709 7.4007,-1.48246 9.7563,-2.58972 z m 186.8367,2.11844 c 3.2636,-0.60197 8.3086,-2.25606 11.2113,-3.67576 2.9026,-1.4197 7.3216,-4.76655 9.8199,-7.43745 2.4983,-2.6709 5.7244,-7.42931 7.1691,-10.57424 2.0003,-4.35464 2.7269,-7.77889 3.0472,-14.3609 0.345,-7.08933 0.012,-9.87536 -1.8548,-15.5 -1.9131,-5.76517 -3.3252,-7.90685 -8.8672,-13.44862 -4.9667,-4.96647 -8.0547,-7.13711 -12.5258,-8.80481 -3.2637,-1.21734 -8.7537,-2.47666 -12.2,-2.79849 -3.5072,-0.3275 -9.0399,-0.0443 -12.566,0.64318 -3.465,0.67558 -8.9194,2.61826 -12.1209,4.31707 -3.2015,1.69882 -7.568,5.07349 -9.7033,7.49928 -2.1352,2.42579 -4.8308,6.36998 -5.9902,8.76488 -1.1593,2.39489 -2.5841,7.2281 -3.1661,10.74046 -0.7774,4.69173 -0.7398,8.2738 0.1419,13.50086 0.7958,4.71803 2.3568,9.07099 4.6341,12.92189 1.8887,3.19392 5.1149,7.32805 7.1692,9.18694 2.0544,1.8589 6.1115,4.48567 9.0158,5.83726 2.9042,1.35159 7.4042,2.81525 10,3.25257 2.5957,0.43732 6.0994,0.84805 7.7858,0.91274 1.6865,0.0647 5.7365,-0.3749 9,-0.97686 z m -14.8825,-18.35433 c -2.0989,-0.74857 -4.675,-2.13828 -5.7248,-3.08826 -1.0497,-0.94998 -2.8199,-3.60984 -3.9338,-5.91081 -1.4028,-2.89795 -2.0252,-6.20013 -2.0252,-10.74572 0,-3.60918 0.6381,-8.07961 1.4181,-9.93428 0.7799,-1.85466 2.6924,-4.55464 4.25,-5.99993 1.5575,-1.4453 3.8148,-3.1328 5.0162,-3.75 1.2013,-0.61721 4.515,-1.12219 7.3638,-1.12219 3.3716,0 6.4549,0.71674 8.8329,2.05329 2.0094,1.1293 4.6389,3.4918 5.8434,5.25 1.2045,1.75819 2.6966,5.55921 3.3157,8.44671 0.8302,3.87197 0.8331,6.61417 0.011,10.44722 -0.613,2.85848 -2.2856,6.73246 -3.7168,8.60885 -1.4311,1.87639 -4.4544,4.25276 -6.7182,5.28081 -2.2639,1.02806 -5.4661,1.85933 -7.1161,1.84727 -1.65,-0.0121 -4.7173,-0.6344 -6.8162,-1.38296 z m -78.8949,9.19881 0.289,-8.75 h -6.4572 c -3.5514,0 -7.1856,-0.27953 -8.0759,-0.62118 -0.8903,-0.34165 -2.2771,-1.8943 -3.0818,-3.45034 -1.1107,-2.14791 -1.463,-6.80522 -1.463,-19.34129 v -16.51214 l 9.25,-0.28752 9.25,-0.28753 v -8.5 -8.5 l -9.25,-0.28753 -9.25,-0.28752 v -10.46248 -10.46247 h -10.5 -10.5 v 10.5 10.5 h -6.5389 -6.539 l 0.289,8.75 0.2889,8.75 h 6.2518 6.2518 v 18.5685 c 0,13.89056 0.39,19.88775 1.5533,23.8051 1.0201,3.43514 2.8975,6.57902 5.4573,9.13879 2.359,2.35902 5.7975,4.49155 8.6949,5.39251 3.0936,0.96197 8.1607,1.42027 14.2927,1.29272 l 9.4982,-0.19762 z m -150.0301,-44.5 -0.2588,-52.75 h -10.5 -10.5 l -0.2588,52.75 -0.2589,52.75 h 11.0177 11.0177 z m 183.2412,15.25 v -37.5 h -10.5 -10.5 v 37.5 37.5 h 10.5 10.5 z m 0,-57.5 v -11 h -11 -11 v 10.33333 c 0,5.68334 0.3,10.63334 0.6667,11 0.3666,0.36667 5.3166,0.66667 11,0.66667 h 10.3333 z"
         style="fill:#318ce7;fill-opacity:1"
         id="path1-7"
         sodipodi:nodetypes="sssscsssssssssssscsscssssssssssssssssssssssscssssssssssssssssssssssssssssssssssssscssssssssscscccccccccssssssccccssssssccssssscsssssssssssssssssssssssssssssssccsssscccccccccccccccccccsssssccccccccccccccccccccccccssscc"
         transform="matrix(1.1756892,0,0,1.1756892,-44.891067,-32.372497)" />
      <path
         d="m 851.05971,505.99305 1.93487,-1.9349 v -9.05945 -9.05945 l -3.35026,-0.0654 c -1.84264,-0.036 -4.35706,-0.10409 -5.58759,-0.15139 -1.45212,-0.0558 -2.97384,0.65046 -4.33562,2.01228 -1.71966,1.71968 -2.09828,2.81851 -2.09828,6.09008 0,3.39637 0.3299,4.2756 2.2118,5.8943 1.4864,1.27856 3.17966,1.90248 5.16333,1.90248 1.62333,0 3.37721,-0.42568 3.89748,-0.94595 0.73572,-0.73574 0.94596,-0.47914 0.94596,1.15471 0,1.32929 -0.60975,2.42699 -1.66063,2.98938 -0.91331,0.4888 -3.21908,0.76478 -5.12391,0.61328 -2.88279,-0.22928 -3.46329,-0.0433 -3.46329,1.10974 0,1.16865 0.74501,1.3852 4.76563,1.3852 4.00872,0 5.07284,-0.30731 6.70051,-1.93491 z m -9.45071,-8.48832 c -0.67494,-0.96359 -1.22714,-2.85964 -1.22714,-4.21345 0,-1.38348 0.63135,-3.03279 1.44155,-3.76607 0.79287,-0.71754 2.36386,-1.30462 3.49105,-1.30462 1.12718,0 2.60689,0.55744 3.28821,1.23875 0.68842,0.68845 1.23873,2.56024 1.23873,4.21345 0,1.88071 -0.53013,3.45449 -1.44156,4.27931 -0.79286,0.71755 -2.36906,1.30462 -3.50263,1.30462 -1.2362,0 -2.55218,-0.70116 -3.28821,-1.75199 z m -374.56241,3.80599 c 1.44691,-0.60454 3.20915,-1.92504 3.91617,-2.93442 0.70702,-1.0094 1.28547,-3.16967 1.28547,-4.80061 0,-2.1352 -0.61889,-3.65802 -2.21077,-5.43966 -1.74387,-1.95169 -2.88059,-2.4919 -5.38153,-2.55748 -1.80338,-0.0473 -4.06539,0.50308 -5.24539,1.27627 -1.21114,0.79357 -2.47174,2.68457 -3.02857,4.5431 -0.80925,2.70104 -0.75342,3.60403 0.36829,5.95629 0.80271,1.68328 2.32604,3.20896 3.8774,3.88328 1.40538,0.61088 2.83266,1.12458 3.17171,1.14155 0.33912,0.0169 1.80038,-0.46376 3.24722,-1.06832 z m -6.97223,-3.80599 c -0.67494,-0.96359 -1.22714,-2.65833 -1.22714,-3.76607 0,-1.10775 0.5522,-2.80249 1.22714,-3.76607 0.84505,-1.20648 2.03427,-1.752 3.81929,-1.752 1.51013,0 3.13678,0.60176 3.89677,1.44159 0.71759,0.79287 1.30463,2.68892 1.30463,4.21344 0,1.68421 -0.56568,3.28379 -1.44155,4.07648 -0.79287,0.71755 -2.54643,1.30462 -3.89678,1.30462 -1.64351,0 -2.86088,-0.57922 -3.68236,-1.75199 z m 44.62355,2.35761 c 0.34898,-0.54987 0.64002,-1.95517 0.64664,-3.12288 0.008,-1.31001 -0.65894,-2.59307 -1.73993,-3.35025 -0.96361,-0.67493 -2.49211,-1.22714 -3.39668,-1.22714 -0.90457,0 -2.33319,-0.5321 -3.17486,-1.18244 l -1.53015,-1.18245 1.53015,-1.18244 c 0.84167,-0.65034 1.99802,-1.18244 2.56969,-1.18244 0.57175,0 1.64698,0.70946 2.3894,1.57659 0.74249,0.86712 1.80322,1.57659 2.35716,1.57659 0.55401,0 1.00728,-0.47713 1.00728,-1.06027 0,-0.58315 -0.64404,-1.64313 -1.43123,-2.35552 -0.78719,-0.71239 -2.47777,-1.50456 -3.75685,-1.76038 -1.68932,-0.33787 -2.91528,-0.002 -4.48099,1.2303 -1.23454,0.97109 -2.15535,2.47169 -2.15535,3.51242 0,0.99934 0.49339,2.22647 1.09644,2.72695 0.60304,0.50048 2.64276,1.35767 4.53269,1.90485 2.54588,0.73711 3.43626,1.39442 3.43626,2.53681 0,1.10805 -0.62961,1.61401 -2.2375,1.7981 -1.29611,0.14838 -2.84685,-0.29528 -3.68575,-1.05447 -0.79657,-0.72084 -2.04058,-1.19085 -2.76455,-1.04445 -1.16951,0.23648 -1.13033,0.50206 0.35119,2.3812 0.91718,1.16328 2.45861,2.24161 3.42545,2.39629 0.96693,0.15468 2.79727,0.008 4.06745,-0.32698 1.27018,-0.33452 2.59498,-1.05811 2.94404,-1.60799 z m 17.01581,-0.0132 c 0.97552,-0.91057 1.77367,-1.94847 1.77367,-2.30645 0,-0.35799 -0.55741,-0.65089 -1.23873,-0.65089 -0.68132,0 -1.78966,0.55089 -2.46295,1.22419 -0.77032,0.77031 -2.27706,1.13564 -4.06413,0.98536 -2.10853,-0.17731 -3.09224,-0.74633 -3.81984,-2.20955 l -0.97993,-1.97073 6.28279,-0.22896 c 5.69094,-0.20738 6.28279,-0.37816 6.28279,-1.81281 0,-0.87112 -0.52595,-2.60089 -1.16873,-3.84393 -0.7071,-1.36743 -2.23718,-2.6127 -3.87391,-3.15286 -2.14961,-0.70943 -3.27253,-0.65568 -5.46833,0.26175 -1.51967,0.635 -3.1464,1.87071 -3.61488,2.74604 -0.46848,0.87532 -0.85175,3.00653 -0.85175,4.73602 0,2.21536 0.59027,3.84602 1.99762,5.51859 1.09872,1.30573 2.7837,2.53264 3.7444,2.72645 0.96077,0.19382 2.63361,0.19061 3.71751,-0.007 1.08391,-0.19773 2.76889,-1.10452 3.7444,-2.01508 z m -10.05075,-8.77304 c 0,-0.59725 0.5332,-1.52842 1.18488,-2.06927 0.65169,-0.54084 2.06951,-0.98335 3.15074,-0.98335 1.08122,0 2.49905,0.44251 3.15073,0.98335 0.65169,0.54085 1.18489,1.47202 1.18489,2.06927 0,0.79074 -1.17858,1.08593 -4.33562,1.08593 -3.15704,0 -4.33562,-0.29519 -4.33562,-1.08593 z m 48.64503,10.13323 c 1.95844,-0.81832 3.13001,-0.94381 3.67968,-0.39415 0.4435,0.44351 1.68404,0.80638 2.75683,0.80638 h 1.95048 l -1.75065,-1.86351 -1.75072,-1.86351 1.67583,-2.84031 c 0.92176,-1.56218 1.44936,-3.20672 1.17259,-3.65455 -0.27677,-0.44783 -0.82787,-0.81424 -1.22469,-0.81424 -0.39691,0 -1.29667,1.11215 -1.99959,2.47144 l -1.27806,2.47146 -2.4393,-2.43932 -2.4393,-2.43931 2.12051,-1.96524 c 1.30006,-1.20484 2.12051,-2.79453 2.12051,-4.1086 0,-1.17886 -0.58704,-2.7921 -1.30462,-3.58497 -0.76859,-0.84926 -2.38806,-1.44159 -3.94148,-1.44159 -1.58581,0 -3.26527,0.62844 -4.21343,1.57659 -0.86713,0.86713 -1.57659,2.39562 -1.57659,3.39666 0,1.00104 0.49024,2.49052 1.08942,3.30996 0.96211,1.31578 0.88037,1.65436 -0.69969,2.89723 -0.98403,0.77404 -2.007,2.27517 -2.27321,3.33584 -0.2662,1.06068 -0.1314,2.85594 0.29964,3.98947 0.43624,1.14743 1.92178,2.55567 3.35151,3.17703 1.41239,0.61383 2.84543,1.12994 3.18447,1.14691 0.33913,0.0169 1.90957,-0.50938 3.48986,-1.16967 z m -6.70775,-2.8986 c -0.52028,-0.52028 -0.94596,-1.70687 -0.94596,-2.63686 0,-0.93 0.71782,-2.34055 1.59519,-3.13455 0.91695,-0.82979 1.8413,-1.13313 2.17396,-0.7134 0.31824,0.40164 1.6339,1.89993 2.92363,3.32952 1.96025,2.17291 2.15323,2.72047 1.17629,3.33819 -0.64269,0.40639 -2.2505,0.74434 -3.57286,0.75098 -1.32237,0.006 -2.82998,-0.41361 -3.35025,-0.93388 z m 1.74307,-12.05915 c -0.2718,-1.08293 -0.2897,-2.50186 -0.0394,-3.15318 0.24989,-0.65131 1.32843,-1.1842 2.39673,-1.1842 1.27246,0 2.12114,0.56326 2.46066,1.63307 0.33108,1.04316 0.0213,2.1822 -0.85735,3.15318 -0.7566,0.83606 -1.84603,1.5201 -2.42085,1.5201 -0.5749,0 -1.26766,-0.88603 -1.53946,-1.96897 z m 61.75406,14.37131 c 0.66099,-0.51713 0.98537,-0.47965 0.98537,0.11386 0,0.48665 0.70947,0.88481 1.57659,0.88481 1.4254,0 1.57659,-0.52553 1.57659,-5.48097 0,-3.01453 -0.41314,-6.38776 -0.91813,-7.49605 -0.5894,-1.29359 -1.97948,-2.33308 -3.88243,-2.9032 -2.53862,-0.76061 -3.34008,-0.66857 -5.5827,0.64115 -1.44013,0.84111 -2.73428,2.13085 -2.87593,2.86611 -0.14158,0.73526 0.13771,1.33684 0.62062,1.33684 0.48291,0 1.86038,-0.72632 3.06111,-1.61405 1.77933,-1.31552 2.57535,-1.46493 4.30369,-0.80781 1.33821,0.5088 2.12059,1.3951 2.12059,2.40235 0,1.36851 -0.51089,1.5961 -3.58319,1.5961 -2.77724,0 -4.02929,0.44617 -5.56702,1.98386 -1.4596,1.45964 -1.84122,2.44907 -1.44423,3.7444 0.29679,0.96829 0.87666,2.18265 1.28862,2.69858 0.41197,0.51593 1.52149,1.05928 2.46547,1.20746 0.94407,0.14817 2.4259,0.11824 3.29303,-0.0665 0.86712,-0.18477 2.02,-0.68288 2.56195,-1.10691 z m -5.75652,-1.71049 c -1.22658,-0.91081 -1.36059,-1.42657 -0.66666,-2.56565 0.56269,-0.92357 2.02024,-1.51106 4.13855,-1.66809 2.35731,-0.17474 3.27,0.0583 3.27,0.8347 0,0.59241 -0.44341,1.64118 -0.98537,2.33062 -0.54195,0.68942 -1.71343,1.46835 -2.60334,1.73094 -0.89842,0.26514 -2.30064,-0.0295 -3.15318,-0.66252 z m 42.41223,1.29867 c 0.75873,-0.65931 1.37951,-2.16453 1.37951,-3.34493 0,-1.1804 -0.44341,-2.50094 -0.98536,-2.93453 -0.54196,-0.43358 -1.69484,-0.97614 -2.56196,-1.20569 -0.86713,-0.22955 -2.55211,-0.63445 -3.7444,-0.89979 -1.1923,-0.26534 -2.16781,-0.9953 -2.16781,-1.62212 0,-0.62683 0.70946,-1.51939 1.57659,-1.98346 1.08579,-0.5811 2.04594,-0.59255 3.08444,-0.0367 0.82936,0.44385 1.64879,1.22961 1.82096,1.74614 0.17933,0.53802 0.8966,0.71523 1.6793,0.41488 1.11205,-0.42675 1.20436,-0.82675 0.496,-2.15029 -0.47858,-0.89431 -1.76507,-1.96625 -2.85875,-2.38208 -1.13791,-0.43261 -3.05654,-0.47959 -4.48477,-0.10982 -1.39158,0.36024 -2.90234,1.45967 -3.41403,2.48435 -0.52926,1.05997 -0.6598,2.54073 -0.30838,3.49781 0.42127,1.14724 1.87268,2.00233 4.70076,2.7694 3.42601,0.92926 4.05302,1.37791 3.85571,2.75903 -0.17484,1.22366 -0.89826,1.71318 -2.80302,1.89675 -1.76814,0.1704 -2.71465,-0.13632 -3.04045,-0.98537 -0.26014,-0.67804 -1.14453,-1.23279 -1.9653,-1.23279 -0.82069,0 -1.49224,0.14835 -1.49224,0.32967 0,0.18132 0.23042,0.93023 0.51215,1.66425 0.28166,0.73402 1.61191,1.80474 2.95611,2.37939 1.34412,0.57464 3.33078,0.84228 4.41469,0.59476 1.0839,-0.24754 2.59151,-0.98949 3.35025,-1.6488 z m 27.95182,0.13745 c 0.95763,-0.597 2.14519,-2.4342 2.63906,-4.08265 0.7298,-2.43583 0.66745,-3.54909 -0.33314,-5.94377 -0.87705,-2.09898 -2.0565,-3.29141 -4.10023,-4.14535 -1.69949,-0.71008 -3.79115,-0.99625 -5.13101,-0.70197 -1.24401,0.27324 -3.1583,1.56213 -4.25396,2.86421 -1.37494,1.63406 -1.99202,3.3067 -1.99202,5.39963 0,2.09517 0.61732,3.76587 1.99762,5.40628 1.09873,1.30573 2.78371,2.51714 3.7444,2.69201 0.96077,0.17487 2.63361,0.15575 3.71752,-0.0425 1.08391,-0.19823 2.75422,-0.84889 3.71176,-1.4459 z m -8.71349,-2.53343 c -0.71758,-0.79287 -1.30463,-2.71856 -1.30463,-4.27931 0,-1.56075 0.55741,-3.39517 1.23873,-4.07648 0.68132,-0.68131 2.43488,-1.23875 3.89678,-1.23875 1.85312,0 3.02965,0.53056 3.88519,1.752 0.67493,0.96358 1.22713,2.73725 1.22713,3.94147 0,1.20422 -0.70946,2.89895 -1.57659,3.76607 -0.86712,0.86712 -2.58584,1.57659 -3.81928,1.57659 -1.23353,0 -2.82982,-0.64871 -3.54733,-1.44159 z m 64.71505,3.64527 2.56196,0.16026 v -5.96356 c 0,-3.27996 -0.34724,-6.6124 -0.77166,-7.40542 -0.42442,-0.79301 -1.91106,-1.83905 -3.30366,-2.32452 -1.84587,-0.64346 -3.2406,-0.64882 -5.14662,-0.0198 -1.43801,0.47459 -2.96659,1.52063 -3.39684,2.32452 -0.43025,0.8039 -0.78223,1.66232 -0.78223,1.90761 0,0.24529 0.5321,0.44597 1.18244,0.44597 0.65035,0 1.89191,-0.70947 2.75904,-1.57659 0.86712,-0.86712 2.10868,-1.57659 2.75903,-1.57659 0.65034,0 1.90483,0.7224 2.7878,1.60534 0.88289,0.88295 1.3941,1.94714 1.13593,2.36488 -0.25824,0.41775 -1.96585,0.75955 -3.79485,0.75955 -1.829,0 -4.11379,0.55222 -5.0774,1.22714 -1.08099,0.75718 -1.74734,2.04024 -1.73993,3.35025 0.008,1.16772 0.28269,2.54886 0.61345,3.06922 0.33077,0.52035 1.47829,1.29271 2.5499,1.71634 1.07169,0.42364 2.65797,0.54635 3.5251,0.27268 0.86712,-0.27365 2.72947,-0.42544 4.13854,-0.3373 z m -8.00931,-3.48604 c -0.27062,-0.70529 -0.0877,-1.76949 0.40637,-2.36488 0.4941,-0.59539 2.27391,-1.08253 3.95503,-1.08253 2.41794,0 3.05669,0.29651 3.05669,1.41893 0,0.78041 -0.42568,1.84461 -0.94595,2.36489 -0.52027,0.52027 -2.07865,0.94595 -3.46298,0.94595 -1.59732,0 -2.69683,-0.46856 -3.00916,-1.28236 z m 43.99607,3.33636 c 1.44692,-0.60454 3.20915,-1.92504 3.91617,-2.93442 0.70702,-1.0094 1.28547,-3.12743 1.28547,-4.70674 0,-1.68526 -0.65641,-3.70592 -1.58888,-4.89144 -0.87391,-1.111 -2.82707,-2.42861 -4.34035,-2.92802 -2.31199,-0.76303 -3.22271,-0.67773 -5.70277,0.53415 -2.22117,1.08535 -3.2268,2.2387 -4.06436,4.66129 -1.01107,2.92436 -0.97497,3.50178 0.39414,6.30636 1.08415,2.22096 2.28125,3.35128 4.2661,4.02814 1.51746,0.51747 2.85914,0.96089 2.98141,0.98537 0.12234,0.0244 1.40624,-0.45013 2.85307,-1.05469 z m -6.62278,-3.63059 c -0.86712,-0.86712 -1.57659,-2.56185 -1.57659,-3.76607 0,-1.20422 0.5522,-2.97789 1.22714,-3.94147 0.84505,-1.20648 2.03427,-1.752 3.81929,-1.752 1.51014,0 3.13678,0.60176 3.89678,1.44159 0.71758,0.79287 1.30462,2.68892 1.30462,4.21344 0,1.68421 -0.56568,3.28379 -1.44155,4.07648 -0.79287,0.71755 -2.38916,1.30462 -3.54733,1.30462 -1.15816,0 -2.81523,-0.70947 -3.68236,-1.57659 z m 146.48562,1.85803 c 1.42335,-1.61866 1.60245,-2.22797 0.80052,-2.72359 -0.64175,-0.39664 -1.65408,-0.055 -2.67264,0.90185 -0.90173,0.84716 -2.50354,1.53487 -3.55954,1.52823 -1.05592,-0.006 -2.31018,-0.27269 -2.78726,-0.59122 -0.47707,-0.31853 -1.28767,-1.3773 -1.80141,-2.35282 l -0.93405,-1.77366 h 6.33411 6.3341 v -1.91025 c 0,-1.05065 -0.91836,-3.00168 -2.04081,-4.33562 -1.69279,-2.01178 -2.61548,-2.42537 -5.41054,-2.42537 -2.58986,0 -3.85082,0.48101 -5.44798,2.07823 -1.6529,1.65276 -2.07469,2.8228 -2.06081,5.71513 0.011,2.22657 0.5457,4.31117 1.37956,5.37563 0.74912,0.9563 2.24885,2.10011 3.33275,2.54183 1.08391,0.4417 3.03494,0.63517 4.33562,0.42993 1.30069,-0.20525 3.19,-1.31148 4.19838,-2.4583 z m -10.11059,-8.40088 c 0,-0.56363 0.42568,-1.45046 0.94596,-1.97073 0.52027,-0.52028 1.9139,-0.94596 3.09689,-0.94596 1.183,0 2.70835,0.55744 3.38967,1.23875 0.68132,0.68131 1.23873,1.56814 1.23873,1.97074 0,0.40259 -1.95103,0.73199 -4.33563,0.73199 -3.03193,0 -4.33562,-0.30815 -4.33562,-1.02479 z m -452.54169,8.44352 c 1.33395,-1.12246 2.42537,-2.71875 2.42537,-3.54733 0,-0.82859 -0.38978,-1.50652 -0.86617,-1.50652 -0.47639,0 -1.86028,1.0642 -3.07531,2.36489 -1.55445,1.66405 -2.9484,2.36488 -4.70371,2.36488 -1.37202,0 -3.17706,-0.36525 -4.01119,-0.81166 -0.83413,-0.44642 -2.05238,-1.84773 -2.70721,-3.11403 -0.65483,-1.26631 -1.18928,-3.47287 -1.18765,-4.90348 0.002,-1.4306 0.69416,-3.73473 1.53899,-5.12029 1.0557,-1.73139 2.35153,-2.67217 4.1438,-3.0084 1.43427,-0.26907 3.55802,-0.12793 4.71943,0.31364 1.16143,0.44157 2.50047,1.52931 2.97564,2.41718 0.47518,0.88788 1.38358,1.61432 2.01867,1.61432 0.63509,0 1.15471,-0.51232 1.15471,-1.13848 0,-0.62617 -0.81902,-2.09065 -1.82005,-3.25441 -1.39703,-1.62415 -2.7408,-2.20441 -5.78167,-2.4966 -2.76907,-0.26607 -4.72329,0.0133 -6.4919,0.9278 -1.39166,0.71966 -3.22274,2.44413 -4.06907,3.83216 -0.89419,1.4665 -1.54002,3.94351 -1.54173,5.91308 -0.002,1.86417 0.52206,4.40466 1.16374,5.64553 0.64168,1.24088 2.10845,2.99692 3.25949,3.90233 1.52307,1.19805 3.22767,1.64619 6.26162,1.64619 3.33484,0 4.65404,-0.40827 6.5942,-2.0408 z m 27.6508,-3.13493 c 0,-2.84666 0.36719,-5.86189 0.81604,-6.70051 0.45635,-0.85264 1.64407,-1.52477 2.69455,-1.52477 1.03322,0 2.43962,0.21532 3.12543,0.47849 0.99128,0.38039 1.24693,1.75404 1.24693,6.70051 0,5.69648 0.13314,6.22201 1.57659,6.22201 1.43769,0 1.57659,-0.52553 1.57659,-5.96403 0,-3.28022 -0.34118,-6.60153 -0.75819,-7.38068 -0.417,-0.77916 -1.81725,-1.85534 -3.11163,-2.39151 -1.94559,-0.80588 -2.77062,-0.76678 -4.75988,0.22562 -1.32355,0.66025 -2.40643,0.87292 -2.40643,0.47259 0,-0.40034 -0.70947,-0.72788 -1.57659,-0.72788 h -1.57659 v 7.88295 7.88294 h 1.57659 c 1.41649,0 1.57659,-0.52553 1.57659,-5.17573 z m 51.23916,-2.70721 c 0,-6.48154 -0.21024,-7.88295 -1.18245,-7.88295 -0.9722,0 -1.18244,1.40141 -1.18244,7.88295 0,6.48153 0.21024,7.88294 1.18244,7.88294 0.97221,0 1.18245,-1.40141 1.18245,-7.88294 z m 7.88294,-3.60513 c 0,-10.51634 -0.11667,-11.46568 -1.37951,-11.22335 -1.2243,0.23493 -1.40411,1.52757 -1.59827,11.48807 l -0.21867,11.22335 h 1.59818 1.59827 z m 50.45086,2.02854 v -9.45954 h 3.54733 c 3.02177,0 3.54733,-0.23357 3.54733,-1.57659 v -1.57659 h -8.33488 c -7.51213,0 -8.3091,0.13617 -8.07324,1.37952 0.18887,0.99557 1.15761,1.44529 3.48087,1.61584 l 3.21916,0.23633 -0.36963,9.42028 -0.36963,9.42028 h 1.67638 1.67631 z m 11.82442,4.09214 c 0,-3.08714 0.41859,-5.91006 0.98537,-6.64474 0.54196,-0.70254 1.84445,-1.39112 2.89438,-1.53019 1.04993,-0.13906 2.05501,-0.69625 2.23348,-1.2382 0.20929,-0.63549 -0.48252,-0.98537 -1.94843,-0.98537 -1.25008,0 -2.69857,0.42568 -3.21884,0.94595 -0.73572,0.73574 -0.94596,0.73574 -0.94596,0 0,-0.52027 -0.70946,-0.94595 -1.57659,-0.94595 h -1.57658 v 7.88295 7.88294 h 1.57658 c 1.42225,0 1.57659,-0.52553 1.57659,-5.36739 z m 27.60191,0.8347 c 0.008,-2.49298 0.45807,-5.41953 1.00365,-6.50343 0.63056,-1.25271 1.79259,-2.06329 3.18921,-2.22477 1.20853,-0.13972 2.70787,0.16976 3.33204,0.68774 0.7998,0.66382 1.13475,2.65823 1.13475,6.75746 0,5.29016 0.14245,5.81569 1.57659,5.81569 1.422,0 1.57549,-0.52165 1.565,-5.32099 -0.008,-2.92654 -0.4602,-6.20782 -1.00846,-7.29172 -0.54826,-1.08391 -1.96877,-2.43675 -3.15665,-3.00634 -1.83018,-0.87756 -2.53681,-0.84748 -4.63068,0.19708 -1.35902,0.67797 -2.61477,1.23267 -2.79056,1.23267 -0.17571,0 -0.10028,-0.35473 0.16767,-0.7883 0.26794,-0.43356 -0.24319,-0.78829 -1.13594,-0.78829 h -1.6231 v 7.88295 c 0,6.48153 0.21024,7.88294 1.18245,7.88294 0.91261,0 1.18512,-1.03433 1.19403,-4.53269 z m 35.46167,-2.16781 v -6.70051 h 2.36488 c 1.57659,0 2.36489,-0.39414 2.36489,-1.18244 0,-0.78829 -0.7883,-1.18244 -2.36489,-1.18244 -1.78793,0 -2.36488,-0.36108 -2.36488,-1.48007 0,-0.81403 0.52761,-1.91791 1.17243,-2.45307 0.64483,-0.53516 1.70902,-0.76709 2.36489,-0.51541 0.81557,0.31297 1.19245,-0.0329 1.19245,-1.09425 0,-1.13717 -0.5362,-1.55185 -2.00661,-1.55185 -1.10361,0 -2.87727,0.87071 -3.94147,1.93491 -1.0642,1.06419 -1.93487,2.66049 -1.93487,3.54732 0,1.08689 -0.51389,1.61242 -1.57659,1.61242 -0.87587,0 -1.57659,0.52553 -1.57659,1.18244 0,0.65691 0.70072,1.18244 1.57659,1.18244 1.45291,0 1.57659,0.52554 1.57659,6.70051 0,6.17497 0.12369,6.7005 1.57659,6.7005 1.45291,0 1.57659,-0.52553 1.57659,-6.7005 z m 27.6019,2.16781 c 0.008,-2.49298 0.45808,-5.41953 1.00366,-6.50343 0.62189,-1.23547 1.794,-2.0638 3.14159,-2.22017 1.22493,-0.14215 2.14952,-0.73554 2.14952,-1.37952 0,-0.62154 -0.7328,-1.13008 -1.62838,-1.13008 -0.89566,0 -2.31459,0.36721 -3.15318,0.81603 -1.05111,0.56251 -1.52479,0.56251 -1.52479,0 0,-0.44882 -0.5321,-0.81603 -1.18245,-0.81603 -0.9722,0 -1.18244,1.40141 -1.18244,7.88295 0,6.48153 0.21024,7.88294 1.18244,7.88294 0.91261,0 1.18513,-1.03433 1.19403,-4.53269 z m 11.94109,-1.41897 c 0.20882,-4.13633 0.65586,-6.17638 1.46568,-6.68843 0.6408,-0.40523 1.95079,-0.74221 2.91101,-0.74885 0.9603,-0.006 2.11318,0.67408 2.56196,1.5127 0.44886,0.83862 0.81604,3.85385 0.81604,6.70051 0,4.07512 0.25147,5.17573 1.18245,5.17573 0.9126,0 1.18512,-1.03433 1.19403,-4.53269 0.008,-2.49298 0.4587,-5.41953 1.00515,-6.50343 0.54637,-1.08391 1.80228,-2.08665 2.7908,-2.22832 0.98852,-0.14167 2.30986,0.16781 2.93632,0.68774 0.80485,0.66797 1.13908,2.65166 1.13908,6.76101 0,4.64397 0.23823,5.81569 1.18245,5.81569 0.95754,0 1.18244,-1.26377 1.18244,-6.64419 0,-4.86651 -0.31761,-6.96182 -1.18709,-7.83131 -0.65295,-0.65291 -1.90673,-1.41552 -2.78631,-1.69468 -0.97993,-0.31102 -2.65703,0.11656 -4.33097,1.10422 -1.50249,0.88648 -2.73176,1.31205 -2.73176,0.94571 0,-0.36634 -1.02778,-1.09179 -2.28392,-1.61211 -1.88048,-0.77893 -2.71599,-0.72263 -4.72977,0.31876 -1.37487,0.71095 -2.44584,0.91074 -2.44584,0.45625 0,-0.44469 -0.5321,-0.80854 -1.18245,-0.80854 -0.9722,0 -1.18244,1.40141 -1.18244,7.88295 0,6.20618 0.23318,7.88294 1.09628,7.88294 0.81281,0 1.17401,-1.53879 1.39686,-5.95166 z m 50.91422,4.9663 c -0.18044,-0.54196 -1.00815,-1.11223 -1.8394,-1.26727 -0.83118,-0.15505 -1.95466,-0.6419 -2.49661,-1.08189 -0.58578,-0.47559 -0.98537,-2.67883 -0.98537,-5.43324 v -4.63325 h 2.36488 c 1.57659,0 2.36489,-0.39414 2.36489,-1.18244 0,-0.78829 -0.7883,-1.18244 -2.36489,-1.18244 -2.10214,0 -2.36488,-0.26276 -2.36488,-2.36488 0,-1.57659 -0.39415,-2.36489 -1.18244,-2.36489 -0.7883,0 -1.18244,0.7883 -1.18244,2.36489 0,1.83935 -0.35032,2.36488 -1.57659,2.36488 -0.87588,0 -1.57659,0.52553 -1.57659,1.18244 0,0.65691 0.70071,1.18244 1.57659,1.18244 1.42492,0 1.57659,0.52554 1.57659,5.46176 0,3.91417 0.35102,5.81276 1.23872,6.7005 0.68132,0.68132 2.48455,1.23875 4.00722,1.23875 1.86416,0 2.6612,-0.32184 2.44032,-0.98536 z m 5.71475,-6.89758 v -7.88295 h -1.57659 -1.57659 v 7.88295 7.88294 h 1.57659 1.57659 z m 26.01372,2.62402 c 0,-3.78724 0.36506,-5.66233 1.30463,-6.7005 0.7175,-0.79287 2.04775,-1.43615 2.9561,-1.42952 0.90828,0.006 2.17578,0.34362 2.81658,0.74885 0.80982,0.51205 1.25686,2.5521 1.46568,6.68843 0.22285,4.41287 0.58404,5.95166 1.39685,5.95166 0.8486,0 1.09629,-1.48623 1.09629,-6.57832 0,-5.27807 -0.27267,-6.81778 -1.37952,-7.78971 -0.75873,-0.66626 -2.18019,-1.45541 -3.15885,-1.75368 -1.04938,-0.31984 -2.74713,-0.0595 -4.13855,0.63463 -1.29753,0.64732 -2.35921,0.8494 -2.35921,0.44907 0,-0.40034 -0.70946,-0.72788 -1.57659,-0.72788 h -1.57659 v 7.88295 7.88294 h 1.57659 c 1.41901,0 1.57659,-0.52553 1.57659,-5.25892 z m 36.76835,3.97019 c 1.49374,-0.70881 3.23233,-2.28749 3.86359,-3.50819 0.63119,-1.22069 1.14634,-3.92203 1.14476,-6.00298 0,-2.30989 -0.57963,-4.72923 -1.48357,-6.21153 -0.81431,-1.33538 -2.76612,-3.038 -4.33735,-3.78359 -1.93511,-0.91828 -4.31757,-1.2794 -7.38475,-1.11936 l -4.52804,0.23628 -0.24051,10.83905 -0.24051,10.83905 h 5.24531 c 3.22177,0 6.29296,-0.49717 7.96107,-1.28873 z m -9.47365,-3.53957 c -0.27093,-1.35488 -0.49268,-5.07958 -0.49268,-8.2771 v -5.81367 h 3.97908 c 3.29042,0 4.31378,0.36104 5.91221,2.08584 1.47348,1.58987 1.93313,2.954 1.93313,5.73682 0,2.00803 -0.54258,4.42557 -1.2057,5.37231 -0.66311,0.94675 -2.52546,2.0879 -4.13854,2.53589 -1.61309,0.448 -3.50925,0.81652 -4.21383,0.81893 -0.80564,0.003 -1.46379,-0.90975 -1.77367,-2.45902 z m 20.79128,-3.05464 c 0,-6.48154 -0.21024,-7.88295 -1.18244,-7.88295 -0.97221,0 -1.18245,1.40141 -1.18245,7.88295 0,6.48153 0.21024,7.88294 1.18245,7.88294 0.9722,0 1.18244,-1.40141 1.18244,-7.88294 z m 26.80202,0 v -7.88295 h -1.57659 -1.57659 v 7.88295 7.88294 h 1.57659 1.57659 z m 13.40101,6.7005 c 0,-0.65034 -0.69701,-1.18244 -1.54884,-1.18244 -0.85191,0 -1.91611,-0.68615 -2.36489,-1.52477 -0.44885,-0.83862 -0.81604,-3.32174 -0.81604,-5.51806 v -3.9933 h 2.36488 c 1.57659,0 2.36489,-0.39414 2.36489,-1.18244 0,-0.78829 -0.7883,-1.18244 -2.36489,-1.18244 -2.10214,0 -2.36488,-0.26276 -2.36488,-2.36488 0,-1.57659 -0.39415,-2.36489 -1.18244,-2.36489 -0.78207,0 -1.18244,0.7822 -1.18244,2.31006 0,1.76807 -0.40164,2.36916 -1.71194,2.56196 -0.94154,0.13854 -1.85794,0.69531 -2.03641,1.23727 -0.20345,0.61774 0.43522,0.98536 1.71194,0.98536 h 2.03641 v 5.46176 c 0,3.91417 0.35102,5.81276 1.23872,6.7005 0.68132,0.68132 2.27762,1.23875 3.54733,1.23875 1.52653,0 2.3086,-0.40055 2.3086,-1.18244 z m 11.66676,0.23649 c 0.73571,-0.73574 0.94595,-0.73574 0.94595,0 0,0.52027 0.70947,0.94595 1.57659,0.94595 1.44337,0 1.57659,-0.52553 1.57659,-6.21903 0,-4.9276 -0.30988,-6.60175 -1.4924,-8.0621 -1.12592,-1.39044 -2.28755,-1.84308 -4.72977,-1.84308 -2.47012,0 -3.7444,0.507 -5.37648,2.13915 -1.68608,1.68604 -1.93495,2.34334 -1.17519,3.10315 0.75984,0.75982 1.22879,0.586 2.21408,-0.82066 0.98159,-1.40144 1.86873,-1.7331 4.13122,-1.54448 2.29835,0.1916 2.93214,0.59902 3.13315,2.01385 0.22806,1.60598 -0.0717,1.77367 -3.17485,1.77367 -1.88474,0 -4.21517,0.55221 -5.17878,1.22714 -1.11891,0.7837 -1.75199,2.04522 -1.75199,3.49102 0,1.24513 0.5574,2.82132 1.23873,3.50262 0.68321,0.68316 2.55707,1.23875 4.17796,1.23875 1.61656,0 3.36491,-0.42568 3.88519,-0.94595 z m -5.66989,-1.84106 c -0.95754,-0.95752 -1.06648,-1.6329 -0.44948,-2.7858 0.59445,-1.11075 1.65872,-1.52184 3.93989,-1.52184 2.53193,0 3.12543,0.28104 3.12543,1.48007 0,0.81403 -0.44341,1.83482 -0.98537,2.26841 -0.54195,0.43358 -1.74615,1.02115 -2.67594,1.30571 -1.07587,0.32926 -2.15023,0.0578 -2.95453,-0.74655 z m 16.86367,-8.70106 c 0,-10.51634 -0.11666,-11.46568 -1.37951,-11.22335 -1.2243,0.23493 -1.40411,1.52757 -1.59827,11.48807 l -0.21867,11.22335 h 1.59819 1.59826 z m -365.91095,-9.20466 c -0.16538,-1.16417 -0.79373,-1.77367 -1.82853,-1.77367 -1.03479,0 -1.66314,0.6095 -1.82853,1.77367 -0.20661,1.45494 0.12195,1.77366 1.82853,1.77366 1.70658,0 2.03514,-0.31872 1.82853,-1.77366 z m 228.74768,-0.19708 c 0,-1.4452 -0.4204,-1.97073 -1.57659,-1.97073 -1.1562,0 -1.57659,0.52553 -1.57659,1.97073 0,1.44521 0.42039,1.97074 1.57659,1.97074 1.15619,0 1.57659,-0.52553 1.57659,-1.97074 z m 74.88799,-0.0548 c 0,-1.6497 -0.32911,-1.97882 -1.77366,-1.77367 -1.13987,0.16189 -1.86369,0.88572 -2.0256,2.02557 -0.20512,1.44453 0.124,1.77366 1.77366,1.77366 1.64974,0 2.0256,-0.37587 2.0256,-2.02556 z m 26.01373,0.0548 c 0,-1.4452 -0.4204,-1.97073 -1.57659,-1.97073 -1.15619,0 -1.57659,0.52553 -1.57659,1.97073 0,1.44521 0.4204,1.97074 1.57659,1.97074 1.15619,0 1.57659,-0.52553 1.57659,-1.97074 z M 772.58852,459.6752 v -6.32094 l 2.08464,1.36591 c 1.17874,0.77236 3.68867,1.39011 5.77599,1.4216 2.51585,0.0379 4.59545,-0.50312 6.53063,-1.69912 1.65132,-1.02057 3.52242,-3.16584 4.47184,-5.12714 0.91418,-1.88833 1.63256,-4.94272 1.63256,-6.94095 0,-2.19303 -0.69126,-4.87579 -1.79329,-6.9598 -1.05766,-1.99999 -2.91212,-3.9912 -4.5204,-4.85375 -1.50966,-0.80962 -4.31623,-1.46039 -6.28673,-1.4577 -1.95781,0.002 -4.53514,0.51373 -5.72743,1.13569 -1.88505,0.98333 -2.16781,0.9827 -2.16781,-0.005 0,-0.8373 -1.03559,-1.13569 -3.94148,-1.13569 h -3.94147 l -4.7e-4,18.722 -4.8e-4,18.722 3.94195,-0.27316 3.94195,-0.27316 z m 1.93486,-12.016 c -1.42366,-1.4237 -1.93486,-2.78689 -1.93486,-5.15974 0,-2.37285 0.5112,-3.73604 1.93486,-5.15974 1.0642,-1.0642 2.81816,-1.93491 3.89757,-1.93491 1.07941,0 2.91756,0.82144 4.08479,1.82543 1.70161,1.46369 2.12216,2.50788 2.12216,5.26922 0,2.76134 -0.42055,3.80553 -2.12216,5.26922 -1.16723,1.00399 -3.00538,1.82543 -4.08479,1.82543 -1.07941,0 -2.83337,-0.87071 -3.89757,-1.93491 z m -247.73359,6.95797 c 1.16597,-0.58992 2.67358,-1.863 3.35025,-2.82907 0.67668,-0.96607 1.23029,-2.38702 1.23029,-3.15768 0,-1.04949 -0.63032,-1.40119 -2.51111,-1.40119 -1.50146,0 -3.25258,0.69652 -4.35509,1.73227 -1.23857,1.16357 -2.76471,1.70617 -4.64873,1.65276 -1.74789,-0.0496 -3.52273,-0.75403 -4.7103,-1.86968 -1.04804,-0.98459 -1.90554,-2.43781 -1.90554,-3.22935 0,-1.31431 0.82999,-1.43918 9.56666,-1.43918 h 9.56667 l -0.50018,-3.64965 c -0.27519,-2.0073 -1.21578,-4.8074 -2.09032,-6.22243 -0.87453,-1.41503 -2.79095,-3.14265 -4.25876,-3.83916 -1.46772,-0.69649 -4.42493,-1.26636 -6.57146,-1.26636 -2.74973,0 -4.67285,0.52405 -6.50895,1.77366 -1.43328,0.97552 -3.34812,2.7752 -4.25514,3.99928 -1.29627,1.74954 -1.64903,3.38126 -1.64903,7.62807 0,4.227 0.35363,5.8761 1.62531,7.57936 0.89392,1.1973 2.53373,2.85519 3.64413,3.68419 1.11031,0.829 3.21679,1.7892 4.68105,2.13377 1.46426,0.34457 3.90379,0.43896 5.42126,0.20974 1.51747,-0.22922 3.71302,-0.89942 4.87899,-1.48935 z m -13.55023,-15.97182 c 0,-0.38552 0.66374,-1.52066 1.47505,-2.52254 1.06751,-1.31837 2.29331,-1.82157 4.43716,-1.82157 2.14384,0 3.36964,0.5032 4.43715,1.82157 0.81131,1.00188 1.47506,2.13702 1.47506,2.52254 0,0.38554 -2.6605,0.70097 -5.91221,0.70097 -3.25172,0 -5.91221,-0.31543 -5.91221,-0.70097 z m 62.48,15.96687 c 1.22643,-0.63423 2.92236,-2.28879 3.76868,-3.67682 0.84631,-1.38803 1.54009,-2.78974 1.54174,-3.11491 0,-0.32517 -1.36107,-0.59122 -3.02807,-0.59122 -2.02986,0 -3.50232,0.52074 -4.45781,1.57659 -0.96101,1.06193 -2.42795,1.57659 -4.49359,1.57659 -2.2051,0 -3.61055,-0.54369 -5.00181,-1.93491 -1.0642,-1.0642 -1.93487,-2.48313 -1.93487,-3.15318 0,-1.03186 1.46276,-1.21827 9.55981,-1.21827 h 9.55988 l -0.38437,-4.00019 c -0.21142,-2.20011 -1.07996,-4.94929 -1.92998,-6.10929 -0.8501,-1.16 -2.76203,-2.74933 -4.24867,-3.53186 -1.96294,-1.03323 -3.94692,-1.34299 -7.24625,-1.13137 -2.98235,0.19128 -5.28449,0.84383 -6.7005,1.89931 -1.18646,0.88436 -2.83494,2.76523 -3.66321,4.17971 -0.96865,1.65431 -1.52747,4.15643 -1.56626,7.01376 -0.0418,3.09502 0.41457,5.25318 1.50596,7.11711 0.86145,1.47131 2.49669,3.36855 3.6338,4.21608 1.13712,0.84754 3.26551,1.83464 4.72977,2.19356 1.46426,0.35892 3.89157,0.4703 5.39398,0.24751 1.50249,-0.22278 3.73526,-0.92398 4.96177,-1.5582 z m -13.60573,-15.96687 c 0,-0.38552 0.62078,-1.44865 1.37951,-2.3625 0.75874,-0.91385 2.44931,-1.86771 3.75686,-2.11968 1.73314,-0.334 2.96131,0.002 4.53269,1.23728 1.18544,0.93248 2.15536,2.20177 2.15536,2.82064 0,0.87476 -1.31606,1.12523 -5.91221,1.12523 -3.25172,0 -5.91221,-0.31543 -5.91221,-0.70097 z m 107.81483,15.91024 c 1.41759,-0.66789 3.3616,-2.31554 4.32001,-3.66147 1.25922,-1.76842 1.82041,-3.87313 2.0234,-7.58868 0.2394,-4.38202 0.008,-5.54637 -1.57975,-7.88183 -1.02336,-1.50716 -3.05748,-3.54687 -4.52039,-4.53269 -1.94969,-1.3139 -3.79454,-1.79243 -6.91019,-1.79243 -2.67248,0 -5.37996,0.57623 -7.29283,1.55208 -1.67324,0.85365 -3.87029,2.8918 -4.88231,4.52921 -1.3587,2.19852 -1.83278,4.11194 -1.81268,7.31624 0.0158,2.5024 0.58901,5.39725 1.35445,6.83891 0.73004,1.3749 2.43748,3.29037 3.79445,4.2566 1.35697,0.96623 3.57941,2.0329 4.93875,2.37037 1.35933,0.33748 3.7131,0.43234 5.23057,0.21081 1.51747,-0.22153 3.91893,-0.94923 5.33652,-1.61712 z m -11.70255,-6.20738 c -1.49713,-1.59366 -1.91106,-2.88895 -1.91106,-5.98047 0,-3.34641 0.3362,-4.23539 2.21179,-5.8487 1.21642,-1.04637 2.8783,-1.90249 3.69308,-1.90249 0.81471,0 2.4084,0.35248 3.5415,0.78328 1.25331,0.47653 2.53846,1.92812 3.28159,3.7065 0.98639,2.36081 1.0504,3.49377 0.3329,5.88871 -0.48867,1.63102 -1.66646,3.51042 -2.61738,4.17645 -0.95092,0.66603 -2.82966,1.21096 -4.17512,1.21096 -1.61041,0 -3.09918,-0.69503 -4.3573,-2.03424 z m 82.94263,6.69023 c 0.71199,-0.37344 2.2196,-1.77839 3.35026,-3.12211 1.13073,-1.34373 2.05579,-2.94802 2.05579,-3.5651 0,-0.78488 -0.95478,-1.12196 -3.17793,-1.12196 -2.00582,0 -3.33504,0.4095 -3.60393,1.11026 -0.23436,0.61066 -1.41877,1.52147 -2.63211,2.02404 -1.76105,0.72945 -2.7841,0.6722 -5.07229,-0.28385 -1.72691,-0.72156 -3.17761,-2.01651 -3.64956,-3.25779 -0.43081,-1.1331 -0.78325,-2.21445 -0.78325,-2.40301 0,-0.18855 4.25679,-0.34283 9.45953,-0.34283 h 9.45954 v -3.35025 c 0,-1.95093 -0.65728,-4.42334 -1.56942,-5.91942 -0.86152,-1.41304 -2.72253,-3.29464 -4.13563,-4.18134 -2.0468,-1.28439 -3.56916,-1.55593 -7.48746,-1.33549 -3.35001,0.18846 -5.61234,0.78392 -7.09465,1.86733 -1.19702,0.87485 -2.83802,2.92252 -3.64681,4.55037 -0.81809,1.64659 -1.47048,4.6338 -1.47048,6.73297 0,2.07528 0.61676,5.07297 1.37061,6.66153 0.75384,1.58857 2.43173,3.64389 3.72871,4.56741 1.2969,0.92351 3.47031,1.95204 4.82964,2.28562 1.35934,0.33358 3.89047,0.41663 5.62472,0.18456 1.73425,-0.23208 3.73573,-0.7275 4.44764,-1.10094 z M 728.5632,437.42887 c 0.48047,-1.05461 1.89183,-2.33921 3.13623,-2.85467 1.74812,-0.72409 2.77716,-0.72409 4.52529,0 1.2444,0.51546 2.65576,1.80006 3.13623,2.85467 l 0.87366,1.91745 h -6.27254 -6.27254 z m 89.83919,17.24122 c 1.14634,-0.59281 2.9993,-2.16522 4.11758,-3.49424 1.11827,-1.32902 2.26847,-3.66999 2.55589,-5.20216 0.28741,-1.53216 0.32753,-4.24019 0.0891,-6.01783 -0.23845,-1.77764 -1.11291,-4.14962 -1.94322,-5.27106 -0.83039,-1.12144 -2.68249,-2.83713 -4.11577,-3.81265 -2.05989,-1.40193 -3.69678,-1.77094 -7.8105,-1.76069 -3.91964,0.01 -5.96818,0.4476 -8.29846,1.77366 -1.92887,1.09765 -3.78421,3.06905 -4.92684,5.23493 -1.00799,1.91084 -1.82498,4.7487 -1.81544,6.30636 0.009,1.55767 0.67762,4.28615 1.48467,6.06329 0.80714,1.77714 2.49724,3.96445 3.75591,4.86069 1.25867,0.89625 3.51706,1.99545 5.01868,2.44268 1.50162,0.44724 4.3219,0.62003 6.26718,0.384 1.94535,-0.23603 4.47491,-0.91418 5.62125,-1.50698 z m -11.55892,-7.01085 c -1.42366,-1.4237 -1.93487,-2.78689 -1.93487,-5.15974 0,-2.37285 0.51121,-3.73604 1.93487,-5.15974 1.15367,-1.15367 2.82469,-1.92479 4.13854,-1.90984 1.21201,0.0138 2.81051,0.48611 3.55222,1.04961 0.7417,0.5635 1.74071,2.05613 2.22007,3.31698 0.47936,1.26084 0.65657,3.43882 0.39368,4.83994 -0.26282,1.40113 -1.25213,3.0898 -2.1984,3.75261 -0.94627,0.6628 -2.7219,1.20509 -3.94589,1.20509 -1.31156,0 -3.01972,-0.79445 -4.16022,-1.93491 z m 66.63171,6.85998 c 1.07555,-0.69213 2.57142,-1.99474 3.324,-2.89467 0.75259,-0.89993 1.38015,-2.25703 1.39458,-3.01577 0.0205,-1.09053 -0.64097,-1.37951 -3.15886,-1.37951 -2.01204,0 -4.02022,0.61746 -5.45279,1.67657 -1.76476,1.30478 -2.88894,1.56001 -5.06929,1.15097 -1.54096,-0.28908 -3.34394,-1.29983 -4.00682,-2.24612 -0.6628,-0.94628 -1.20507,-2.17368 -1.20507,-2.72756 0,-0.76396 2.40005,-1.00704 9.94316,-1.00704 h 9.94323 l -0.55283,-3.7444 c -0.30412,-2.05942 -1.23683,-4.85951 -2.07266,-6.22244 -0.83591,-1.36291 -2.82754,-3.09857 -4.4258,-3.85701 -1.59835,-0.75844 -4.71361,-1.37897 -6.92289,-1.37897 -2.21242,0 -5.33991,0.62783 -6.96214,1.39763 -1.86266,0.88387 -3.69387,2.67496 -4.9817,4.87251 -1.73394,2.95871 -1.9858,4.17456 -1.6957,8.18512 0.22072,3.05193 0.89487,5.45254 1.91492,6.81873 0.86578,1.15968 2.48266,2.78679 3.59305,3.61579 1.11031,0.829 3.21679,1.80333 4.68105,2.16516 1.46426,0.36184 4.25853,0.476 6.20955,0.25367 1.95103,-0.22233 4.42738,-0.97052 5.50301,-1.66266 z m -14.17425,-15.96119 c 0,-0.43356 0.70947,-1.49776 1.57659,-2.36489 0.94816,-0.94815 2.62763,-1.57659 4.21344,-1.57659 1.53441,0 3.13213,0.57675 3.82157,1.37952 0.65161,0.75873 1.43698,1.82293 1.74529,2.36488 0.42717,0.75083 -0.85775,0.98537 -5.39817,0.98537 -3.44697,0 -5.95872,-0.33229 -5.95872,-0.78829 z m -400.45371,14.1893 v -3.15318 h -8.27709 -8.2771 v -14.9776 -14.9776 h -3.54732 -3.54733 v 18.13078 18.13078 h 11.82442 11.82442 z m 11.03613,-10.24783 v -13.40101 h -3.54733 -3.54732 v 13.40101 13.40101 h 3.54732 3.54733 z m 12.80979,12.0215 c -0.10839,-0.54196 0.0694,-0.97409 0.39414,-0.96031 0.32518,0.0138 1.2798,0.5459 2.12138,1.18245 0.86602,0.655 3.22082,1.15737 5.42505,1.15737 2.52916,0 4.79638,-0.55718 6.46591,-1.58901 1.41412,-0.87396 3.20071,-2.91367 3.97024,-4.5327 0.76954,-1.61902 1.53994,-4.53998 1.71202,-6.491 0.23073,-2.61526 -0.16664,-4.47773 -1.51226,-7.0883 -1.0039,-1.94752 -3.03052,-4.34197 -4.50377,-5.32098 -1.69562,-1.12686 -3.86509,-1.77825 -5.91221,-1.77517 -1.77847,0.002 -4.24969,0.53477 -5.49157,1.18244 -1.24188,0.64767 -2.30608,1.17815 -2.36489,1.17884 -0.0591,6.9e-4 -0.10697,-2.92585 -0.10697,-6.50343 v -6.50469 l -3.35025,-0.2424 -3.35025,-0.2424 v 19.00973 19.00972 l 3.35025,-0.2424 c 2.16379,-0.15656 3.28049,-0.59134 3.15318,-1.22776 z m 2.40887,-6.04104 c -1.89333,-1.62854 -2.2118,-2.48968 -2.2118,-5.98046 0,-3.5265 0.31059,-4.3451 2.29646,-6.05327 1.79408,-1.54327 2.82801,-1.86898 4.72701,-1.48918 1.33679,0.26737 3.14127,1.19681 4.0099,2.06544 1.1498,1.14976 1.57935,2.62816 1.57935,5.4354 0,2.99611 -0.42624,4.30974 -1.91107,5.89032 -1.16234,1.23722 -2.7666,2.03424 -4.09464,2.03424 -1.20088,0 -3.1788,-0.85612 -4.39521,-1.90249 z m 58.89263,-0.65947 c 0.008,-4.90326 0.40187,-8.85484 1.00421,-10.05076 0.81462,-1.61741 1.66046,-2.01381 4.7181,-2.211 l 3.72564,-0.24026 v -3.10999 -3.10999 h -2.69857 c -1.75309,0 -3.54828,0.71502 -5.12392,2.04081 l -2.42534,2.04082 v -2.04082 c 0,-1.85542 -0.28647,-2.04081 -3.15318,-2.04081 h -3.15318 v 13.40101 13.40101 h 3.54732 3.54733 z m 62.90253,5.12392 -0.24469,-2.95611 -7.06667,0.28454 -7.06675,0.28455 1.13483,-1.46699 c 0.6241,-0.80684 3.71547,-4.21228 6.8696,-7.56763 5.15371,-5.48247 5.73484,-6.42103 5.73484,-9.26246 v -3.16182 h -10.64198 -10.64198 v 3.1213 3.1213 l 6.3997,0.22895 6.39977,0.22896 -6.79392,7.21303 c -5.93893,6.30539 -6.79384,7.57013 -6.79384,10.05076 v 2.83772 h 11.47789 11.4778 z m 35.69327,-9.65661 c 2.52317,-6.72022 4.60364,-12.68238 4.62335,-13.24927 0.0252,-0.72819 -0.94028,-0.95955 -3.29011,-0.78829 l -3.32597,0.2424 -2.76613,8.08002 c -1.52133,4.44401 -2.95121,8.07963 -3.17745,8.07914 -0.22624,-4.8e-4 -1.68924,-3.63649 -3.25117,-8.08002 l -2.83983,-8.07914 -2.5562,-0.25262 c -1.40593,-0.13894 -3.02958,-0.0709 -3.60811,0.15105 -0.79278,0.3042 0.0678,3.27993 3.49246,12.07703 2.49937,6.42036 4.77691,12.31472 5.06117,13.09857 0.40708,1.12233 1.21114,1.37361 3.78366,1.18244 l 3.26685,-0.24275 z m 55.38519,12.017 c 0.20252,-0.32764 0.1821,-1.56921 -0.0449,-2.75903 -0.33416,-1.74798 -0.83914,-2.16332 -2.63022,-2.16332 -1.21918,0 -2.77417,-0.55744 -3.45549,-1.23875 -0.91782,-0.91782 -1.23873,-2.858 -1.23873,-7.4888 v -6.25005 h 3.54733 3.54732 v -3.15318 -3.15318 h -3.54732 -3.54733 v -3.54733 -3.54732 h -3.54733 -3.54732 v 3.49497 c 0,3.22668 -0.16641,3.5141 -2.16781,3.7444 -1.90444,0.21913 -2.16781,0.5846 -2.16781,3.00846 0,2.42386 0.26337,2.78933 2.16781,3.00846 l 2.16781,0.24944 v 6.27931 c 0,3.5869 0.47132,7.4073 1.0992,8.91001 0.60454,1.44688 1.92501,3.20915 2.93442,3.91616 1.1275,0.78974 3.4216,1.28546 5.94895,1.28546 2.26256,0 4.27933,-0.26807 4.48185,-0.59571 z m 11.54931,-6.84177 c 0,-4.09062 0.37696,-8.42887 0.83764,-9.64057 0.46068,-1.21169 1.25883,-2.47092 1.77366,-2.79828 0.51484,-0.32736 2.26627,-0.60063 3.89213,-0.60726 l 2.9561,-0.0121 v -3.15318 -3.15318 h -2.69856 c -1.75309,0 -3.54828,0.71502 -5.12392,2.04081 l -2.42535,2.04081 v -2.04081 c 0,-1.85542 -0.28646,-2.04081 -3.15318,-2.04081 h -3.15317 v 13.40101 13.40101 h 3.54732 3.54733 z m 138.73987,4.2843 v -3.15318 h -2.60138 c -1.43075,0 -3.02705,-0.42568 -3.54732,-0.94595 -0.57404,-0.57404 -0.94596,-3.36339 -0.94596,-7.09465 v -6.1487 h 3.59494 3.59486 l -0.2446,-2.95611 -0.24469,-2.9561 -3.35025,-0.2424 -3.35026,-0.2424 v -3.89615 -3.89615 h -3.94147 -3.94147 v 3.89153 3.89153 l -2.56196,0.24702 c -2.33895,0.22551 -2.58324,0.50433 -2.80664,3.20312 l -0.24461,2.95611 h 2.31845 2.31838 l 0.31981,7.31224 c 0.22774,5.20585 0.70702,7.865 1.66385,9.2311 0.73918,1.05536 2.14519,2.3638 3.12449,2.90765 0.97922,0.54384 3.82015,1.00138 6.31313,1.01673 l 4.5327,0.0279 z m 43.41005,-1.37951 c 0.0299,-2.49299 0.18186,-6.30303 0.33825,-8.46679 0.22262,-3.07944 0.74147,-4.32721 2.38822,-5.74374 1.44163,-1.23999 2.63795,-1.64995 3.80037,-1.3023 0.93303,0.27905 2.22848,1.01592 2.87882,1.63751 0.9428,0.90099 1.13247,2.88175 0.93579,9.76907 l -0.24674,8.63894 h 4.38528 4.38529 l -0.008,-8.47417 c 0,-4.66079 -0.35662,-9.74207 -0.78711,-11.29174 -0.43049,-1.54966 -1.65849,-3.64032 -2.72884,-4.64593 -1.31416,-1.23456 -3.22405,-1.95115 -5.88083,-2.20643 -3.05233,-0.29329 -4.56042,-0.009 -6.72618,1.2691 l -2.78827,1.64716 v -1.55001 c 0,-1.33447 -0.54811,-1.55 -3.94148,-1.55 h -3.94147 v 13.40101 13.40101 h 3.94147 3.94148 z m 42.51412,1.37951 v -3.15318 h -2.66255 c -1.46433,0 -3.03406,-0.44779 -3.48836,-0.99508 -0.45421,-0.5473 -0.91379,-3.65121 -1.02123,-6.89758 l -0.19542,-5.90249 3.28963,-0.2424 3.28963,-0.24241 v -3.10785 -3.10785 h -3.15318 -3.15317 v -3.94147 -3.94148 h -4.33563 -4.33562 v 3.94148 3.94147 h -2.36488 -2.36488 v 3.15318 3.15318 h 2.36488 2.36488 v 6.50343 c 0,4.61621 0.40117,7.30089 1.37952,9.2515 0.75802,1.51143 2.26509,3.19118 3.34899,3.73278 1.08391,0.54159 4.01045,0.98994 6.50343,0.99633 l 4.53396,0.0116 z m 12.61271,-10.28903 v -13.4422 l -4.13854,0.23827 -4.13855,0.23827 -0.21852,12.18547 c -0.12013,6.70201 -0.0426,12.64378 0.17232,13.20393 0.24784,0.64569 1.84256,1.01847 4.35707,1.01847 h 3.96622 z m 27.35501,11.89753 c 1.38795,-0.84633 3.06213,-2.58012 3.72028,-3.85287 l 1.19671,-2.31409 -1.74962,-0.46904 c -0.96227,-0.25797 -2.58048,-0.47388 -3.59604,-0.4798 -1.01548,-0.006 -2.74831,0.6987 -3.85067,1.56583 -1.10243,0.86712 -2.6493,1.57659 -3.43751,1.57659 -0.7883,0 -2.29757,-0.39385 -3.35412,-0.87522 -1.05647,-0.48137 -2.31254,-1.7349 -2.79135,-2.78561 -0.70639,-1.55042 -0.63836,-1.99943 0.36096,-2.3829 0.67723,-0.25989 5.10925,-0.27927 9.84888,-0.0431 l 8.61756,0.42943 -0.0173,-2.88644 c -0.009,-1.58755 -0.67706,-4.33924 -1.48349,-6.11488 -0.87761,-1.93242 -2.62321,-3.9435 -4.34831,-5.0097 -2.07984,-1.28541 -4.13973,-1.79313 -7.39941,-1.82383 -2.48447,-0.0234 -5.39745,0.41196 -6.4734,0.96748 -1.07586,0.55552 -2.93734,1.92531 -4.13649,3.04397 -1.19924,1.11867 -2.56023,3.44455 -3.02453,5.16862 -0.46423,1.72408 -0.62575,4.59039 -0.35891,6.36958 0.26676,1.7792 1.1811,4.37948 2.03183,5.77839 0.85072,1.39893 2.7029,3.24838 4.116,4.10993 1.9176,1.16919 3.96851,1.56643 8.08719,1.56643 4.08542,0 6.1733,-0.3995 8.04179,-1.53878 z m -13.954,-16.06977 c 0,-0.58315 0.64869,-1.64735 1.44156,-2.36489 0.79286,-0.71754 2.72379,-1.30462 4.29092,-1.30462 2.05083,0 3.1933,0.49101 4.07651,1.752 0.67494,0.96358 1.22714,2.02778 1.22714,2.36488 0,0.33709 -2.48313,0.61289 -5.51806,0.61289 -4.09685,0 -5.51807,-0.27309 -5.51807,-1.06026 z m 32.32009,-1.30462 v -18.91908 h -4.33563 -4.33562 v 18.91908 18.91907 h 4.33562 4.33563 z M 525.25277,422.49092 c 1.5881,-1.89992 2.6683,-3.67358 2.40044,-3.94148 -0.26794,-0.26789 -1.95363,-0.48708 -3.74598,-0.48708 h -3.25889 l -1.73361,3.56842 c -0.95352,1.96262 -1.7337,3.73629 -1.7337,3.94147 0,0.20519 1.16644,0.37306 2.59207,0.37306 2.09702,0 3.14372,-0.65984 5.47967,-3.45439 z m 421.54892,-0.48708 v -3.94148 h -4.33562 -4.33562 v 3.41595 c 0,1.87877 0.23649,3.65243 0.52556,3.94147 0.28899,0.28904 2.24002,0.52553 4.33562,0.52553 h 3.81006 z m -476.91834,-0.39415 v -3.54733 h -3.54733 -3.54732 v 3.54733 3.54733 h 3.54732 3.54733 z m 525.06652,-21.34964 c -0.0339,0.83098 0.15214,1.29657 0.41409,1.03463"
         style="fill:#318ce7;fill-opacity:1;stroke-width:0.788295"
         id="path1-8"
         sodipodi:nodetypes="ccccssssssssssssscsssssssssssssssssssssssssssssscssscssssssscssssssssscssssssscsssssssssssssssssssssscccsssscccssssssssssssssssssscsccssssccsssssssssssssssssssssssssssssssssssssssssssssssssssssssssssssssssssssssssccssssssssssssscsssscsssssssssssssssssssssssssssssscsscccsssscsssssssssssssssssssssssssssssssssssssssssssssscccsssssssssscccsccsscsssccccccsssssssscccsscssssscsssssscsscscsssssssssssssssscssssssssscsscssscssssssssssssssssssssscssssssssssssscccccccccsscssssssssscccsssscssscccsssscssssscsssssscccccccccsssscssssssssscssssssssssssssssssssssssssssssscccsssssssssssssssssssssccssssssscsssccccccssssssssssssssssssccsssssssssssssssssssscsssssscsssssscsssssssscsssssscsssssssssssssssssssscssssssssscsssssssssssccsssscccsssssssssssssssssssssssssssscsssssscsssssssssssssssssssccccccccccccccccccccccssssssssscssscccccssssssssssscsscccsscssccccccccccssscccccccssccccssscssscssssscsccssscccccccccccsssscssssccsssscccsscsscccccsccssscccccccccccccsscccsssscccsssssccccsssccssccccccccssscccccccccccccccccccssssccccccsssccsscscsssssscsssssssssssssssssssscccccccccssscssssccccsssccccccccccccc" />
    </g>
  </g>
</svg>
