<?xml version="1.0" encoding="UTF-8" standalone="no"?>
<!-- Created with Inkscape (http://www.inkscape.org/) -->

<svg
   width="512"
   height="512"
   viewBox="0 0 512 512"
   version="1.1"
   id="svg1"
   inkscape:export-filename="logo_simple.svg"
   inkscape:export-xdpi="300"
   inkscape:export-ydpi="300"
   xmlns:inkscape="http://www.inkscape.org/namespaces/inkscape"
   xmlns:sodipodi="http://sodipodi.sourceforge.net/DTD/sodipodi-0.dtd"
   xmlns="http://www.w3.org/2000/svg"
   xmlns:svg="http://www.w3.org/2000/svg">
  <sodipodi:namedview
     id="namedview1"
     pagecolor="#ffffff"
     bordercolor="#000000"
     borderopacity="0.25"
     inkscape:showpageshadow="2"
     inkscape:pageopacity="0.0"
     inkscape:pagecheckerboard="0"
     inkscape:deskcolor="#d1d1d1"
     inkscape:document-units="px">
    <inkscape:page
       x="0"
       y="0"
       width="512"
       height="512"
       id="page2"
       margin="0"
       bleed="0" />
  </sodipodi:namedview>
  <defs
     id="defs1" />
  <g
     inkscape:label="Calque 1"
     inkscape:groupmode="layer"
     id="layer1">
    <path
       d="m 234.37905,349.87054 c 2.22546,-1.49976 4.71891,-4.0561 5.54103,-5.68081 0.82207,-1.62466 1.49934,-4.56851 1.50499,-6.54182 0.006,-1.97332 -0.80824,-5.15742 -1.80867,-7.07578 l -1.81891,-3.48792 20.58623,-31.19467 c 11.32243,-17.15707 20.97158,-31.65331 21.44255,-32.2139 0.47097,-0.56054 2.38892,0.0934 4.26211,1.45359 1.87321,1.36003 5.94399,3.02781 9.04623,3.70615 3.90698,0.85428 7.44977,0.84529 11.52778,-0.0293 3.79342,-0.81353 7.69374,-2.80883 10.96634,-5.61006 2.79347,-2.39108 6.07046,-6.53018 7.28221,-9.19798 1.21175,-2.66781 2.215,-7.09392 2.22945,-9.83584 l 0.0263,-4.98529 7.70247,-2.56321 c 4.23633,-1.40976 10.82905,-4.60209 14.65039,-7.09408 3.82137,-2.49198 9.79709,-7.43691 13.27938,-10.98875 3.48228,-3.55183 7.9227,-9.68696 9.86764,-13.63358 1.94492,-3.94663 4.20132,-10.00114 5.01417,-13.45447 0.81284,-3.45331 1.78346,-6.27872 2.15694,-6.27872 0.37345,0 2.72372,3.97468 5.22281,8.83263 3.36477,6.54077 4.31579,9.56644 3.66498,11.66054 -0.48337,1.55533 -2.76292,6.5951 -5.06564,11.19952 -2.95819,5.91506 -7.03577,11.21823 -13.89562,18.07223 -7.78044,7.77378 -11.728,10.66261 -19.87445,14.54409 -5.59105,2.66394 -11.8697,5.19334 -13.95252,5.62091 -2.08278,0.42753 -4.1186,1.64174 -4.52401,2.69819 -0.4054,1.05647 -0.18256,2.47537 0.49519,3.15313 0.84576,0.84576 3.76537,0.41486 9.30783,-1.37367 4.44154,-1.43328 11.57362,-4.63414 15.84902,-7.11305 4.27544,-2.47889 12.09031,-8.81249 17.36636,-14.07469 6.43157,-6.41465 11.03682,-12.32645 13.97456,-17.93928 2.72677,-5.20971 4.61241,-7.69408 4.99255,-6.57772 0.33597,0.98665 1.17534,3.94662 1.8653,6.57772 0.68999,2.6311 1.25246,7.20561 1.24994,10.16559 -0.004,3.74176 -1.05392,7.20404 -3.44813,11.36155 -1.89398,3.28885 -5.69395,8.52707 -8.44442,11.64044 -2.75047,3.11342 -9.50233,8.65592 -15.00417,12.31673 -5.5018,3.66076 -13.40216,8.00233 -17.5563,9.6479 -4.15413,1.64554 -11.85839,4.06332 -17.12058,5.37284 -7.06623,1.75844 -15.59766,2.57216 -32.6321,3.11245 -12.68546,0.40233 -23.36079,1.21103 -23.72298,1.79706 -0.36219,0.58607 0.0583,1.9293 0.93452,2.98503 1.3959,1.68198 4.19953,1.82916 22.6552,1.18926 11.62424,-0.40301 25.23238,-1.59161 30.36858,-2.65254 5.11851,-1.05725 13.82624,-3.55776 19.35047,-5.55665 5.52427,-1.99892 14.03106,-6.2371 18.90397,-9.41816 4.87292,-3.18108 11.49208,-8.3702 14.70926,-11.53135 3.21715,-3.16116 6.73234,-7.06053 7.81149,-8.66529 1.07917,-1.60473 2.28665,-2.59319 2.6833,-2.19653 0.39665,0.39665 -0.11577,3.98862 -1.13899,7.98217 -1.02309,3.99353 -3.17592,9.85744 -4.78403,13.03089 -1.6081,3.17346 -5.09891,8.5216 -7.75735,11.88479 -2.65845,3.36316 -8.42184,8.67541 -12.80755,11.80501 -4.48329,3.19918 -10.65504,6.38934 -14.09823,7.28727 -4.58087,1.19464 -16.79345,1.57795 -48.46307,1.52107 -25.59366,-0.0459 -42.79347,0.37856 -43.48822,1.0733 -0.63213,0.6321 -0.78772,1.73436 -0.34575,2.44947 0.56669,0.91703 26.51039,1.30016 88.03737,1.30016 86.43655,0 87.23385,-0.022 87.23385,-2.39189 0,-2.20071 -0.7973,-2.39193 -9.97459,-2.39193 -5.48601,0 -18.94517,-0.35377 -29.90921,-0.78619 l -19.93466,-0.78618 8.08313,-4.81782 c 4.44572,-2.64984 11.33434,-8.08143 15.30805,-12.07029 4.65234,-4.67007 9.00649,-10.70351 12.22824,-16.9445 2.75179,-5.33061 5.8242,-12.84366 6.82747,-16.6956 1.04503,-4.01211 1.8242,-12.09957 1.8242,-18.93438 0,-7.03655 -0.79722,-15.10966 -1.94339,-19.67989 -1.06887,-4.26199 -3.46843,-11.44734 -5.33236,-15.96744 -1.86395,-4.52007 -7.02279,-14.24945 -11.46412,-21.6208 -4.44133,-7.37133 -9.2944,-16.36573 -10.78459,-19.9875 -1.4902,-3.6218 -2.72223,-8.24446 -2.73784,-10.2726 -0.0165,-2.02814 0.31276,-4.02868 0.72974,-4.44564 0.41698,-0.41697 2.10409,0.3006 3.74914,1.5946 1.64507,1.29399 4.57953,2.35273 6.52107,2.35273 2.04595,0 5.71743,1.57087 8.73291,3.73642 4.13476,2.96936 5.89352,3.56311 8.56686,2.89214 1.85018,-0.46437 5.57555,-3.15243 8.27857,-5.97346 2.703,-2.82105 5.28951,-6.62304 5.74779,-8.44888 0.74605,-2.97255 0.0124,-4.08524 -7.00718,-10.6384 -4.31224,-4.02523 -7.84041,-8.1376 -7.84041,-9.13857 0,-1.00098 -2.72247,-4.49065 -6.04999,-7.75477 -5.70728,-5.59864 -6.02905,-6.23964 -5.68076,-11.316577 0.32919,-4.79816 0.10978,-5.34475 -2.02269,-5.04007 -1.31553,0.18793 -4.2854,1.1553 -6.59967,2.14963 -3.97818,1.70925 -4.58993,1.63889 -11.21122,-1.28937 -3.85189,-1.70347 -7.31206,-2.78861 -7.6893,-2.41141 -0.3772,0.37725 -0.0716,4.27124 0.67893,8.65336 l 1.36475,7.967477 -4.19818,5.71914 c -2.30903,3.14549 -5.27816,8.79173 -6.59812,12.54721 -1.31993,3.75546 -2.69748,10.37797 -3.06124,14.7167 -0.4935,5.88658 -0.0217,10.30734 1.85824,17.41951 1.38576,5.24204 3.17864,11.81448 3.98418,14.60545 1.15092,3.98777 1.15465,6.88209 0.0165,13.51497 -0.79605,4.64229 -2.58215,10.70053 -3.96911,13.46278 -1.38694,2.76223 -4.68197,7.85216 -7.32225,11.31095 -2.64028,3.45879 -8.41732,8.69315 -12.83785,11.63191 -4.42056,2.93875 -11.16266,6.5392 -14.98246,8.00097 l -6.9451,2.65772 -1.90673,-2.83506 c -1.04872,-1.55929 -3.82728,-4.78066 -6.17459,-7.15862 -2.3473,-2.37795 -6.44609,-4.97616 -9.10838,-5.77381 -2.6623,-0.79765 -6.95972,-1.45026 -9.54979,-1.45026 -2.68474,0 -7.41536,1.34852 -11.00408,3.13686 -4.02936,2.0079 -7.41442,4.82857 -9.4055,7.83734 -1.71086,2.58524 -3.74999,7.22815 -4.53139,10.31756 l -1.4208,5.61715 -6.15186,0.36148 c -3.38353,0.19888 -6.15184,-0.13087 -6.15184,-0.73251 0,-0.60171 -1.48001,-2.95405 -3.28887,-5.22739 -3.2716,-4.11167 -3.28699,-4.21861 -2.92726,-20.33179 l 0.36163,-16.19843 7.28851,-0.7618 c 4.00869,-0.41899 13.69036,-0.76179 21.51491,-0.76179 8.25048,0 18.03234,0.78612 23.28691,1.87151 4.98331,1.02933 12.01482,3.17802 15.6256,4.77486 3.61079,1.59687 6.96962,2.65337 7.46407,2.34777 0.49448,-0.3056 2.83482,-4.52554 5.20082,-9.37763 2.36596,-4.8521 5.62978,-12.80527 7.25289,-17.6737 1.62312,-4.86845 3.79937,-12.99991 4.83614,-18.06993 1.09687,-5.36389 1.88502,-15.19587 1.88502,-23.51482 0,-7.86316 -0.77212,-18.24579 -1.71585,-23.07249 -0.94369,-4.82671 -2.82731,-11.95463 -4.18582,-15.83977 -1.35849,-3.885207 -2.46999,-7.712387 -2.46999,-8.504897 0,-0.7925 4.28977,-8.02423 9.53283,-16.07051 l 9.53285,-14.629595 6.53405,-0.186685 c 5.45377,-0.155672 7.13773,-0.764988 10.18547,-3.684941 2.00828,-1.924102 3.98053,-5.252649 4.38276,-7.39676 0.40222,-2.144111 0.12425,-5.737944 -0.61779,-7.986312 -0.74203,-2.248347 -2.62606,-5.287504 -4.18674,-6.753704 -1.58633,-1.490284 -5.07402,-2.965766 -7.90919,-3.34606 -3.59469,-0.48213 -6.19951,-0.07297 -8.94487,1.405689 -2.13031,1.147245 -4.58322,3.4124 -5.45089,5.033694 -1.11014,2.074275 -2.30406,2.78024 -4.02919,2.382375 -1.34833,-0.310974 -10.90372,-2.056206 -21.23418,-3.878345 -18.00501,-3.175769 -18.83864,-3.448084 -20.13479,-6.577295 -0.74365,-1.795387 -2.91006,-3.909666 -4.81418,-4.698388 -1.90414,-0.788722 -4.80304,-1.097463 -6.44203,-0.686077 -1.63901,0.411364 -4.07126,1.919243 -5.405,3.350875 -1.43752,1.542961 -2.425,4.237736 -2.425,6.617589 0,2.6679 0.98475,4.999438 2.93552,6.950208 2.06767,2.067659 4.25469,2.9355 7.39759,2.9355 2.92028,0 5.40813,-0.888741 7.1999,-2.572036 l 2.73783,-2.572014 20.46396,3.362039 c 19.61076,3.221851 20.51053,3.491126 21.58194,6.458877 0.61493,1.703265 1.68372,4.20993 2.37509,5.570404 1.05214,2.070326 0.30616,3.922317 -4.57646,11.361544 -3.20841,4.888356 -7.05816,10.906108 -8.55498,13.372778 -1.4968,2.46664 -3.08122,4.4828 -3.52089,4.48031 -0.43969,-0.002 -1.87579,-2.54083 -3.19134,-5.64085 -1.31554,-3.1 -2.57127,-6.05797 -2.79055,-6.57326 -0.21925,-0.515277 0.72255,-0.936854 2.09291,-0.936854 1.66531,0 2.49158,-0.766494 2.49158,-2.311319 0,-1.271206 -0.94182,-2.57257 -2.0929,-2.891896 -1.15112,-0.319348 -5.32199,-0.938257 -9.26864,-1.375381 -3.94663,-0.437125 -20.36108,-2.627317 -36.47651,-4.867064 -16.11546,-2.239748 -31.034,-4.369386 -33.15229,-4.732519 l -3.85146,-0.660257 -0.33437,-15.200812 c -0.31371,-14.291955 -0.4767,-15.200688 -2.72559,-15.200688 -2.24347,0 -2.41277,0.909209 -2.7277,14.650395 -0.22796,9.945621 -0.7723,14.650397 -1.69501,14.650397 -0.74751,0 -22.5896,-3.005191 -48.53793,-6.678185 -32.70925,-4.630039 -47.56083,-6.296153 -48.42449,-5.432469 -0.86367,0.863665 -0.81289,1.76725 0.16559,2.946189 0.77622,0.935278 2.90739,1.999705 4.73595,2.365443 2.77795,0.555585 4.34687,2.619606 9.54079,12.551478 3.41887,6.537643 6.21613,12.088696 6.21613,12.335685 0,0.24701 -2.40258,0.449093 -5.33909,0.449093 -3.35298,0 -6.06839,0.729334 -7.29968,1.960654 -1.07835,1.07834 -2.32271,3.73088 -2.76521,5.89451 -0.74685,3.65167 -1.718,4.34011 -13.53773,9.59641 -12.36992,5.50099 -12.79109,5.59853 -14.76344,3.41914 -1.11663,-1.23386 -3.88389,-2.85516 -6.14942,-3.60287 -2.26555,-0.74768 -5.92661,-1.02036 -8.13568,-0.60594 -2.47618,0.46453 -5.4275,2.36052 -7.69574,4.94391 -2.866446,3.26467 -3.678215,5.30402 -3.674726,9.231577 0.0019,2.87961 1.000691,6.67502 2.3279,8.85168 1.277886,2.09578 3.489186,4.43441 4.913996,5.19693 1.46531,0.78422 5.87569,1.20698 10.15349,0.97331 l 7.5629,-0.41315 13.82956,13.63563 c 13.35996,13.17262 13.82955,13.80926 13.82955,18.74943 0,4.10005 0.62468,5.60518 3.15115,7.59249 1.78891,1.40718 4.91444,2.47872 7.23006,2.47872 2.7361,0 5.04531,-0.96639 7.01445,-2.93552 2.06766,-2.06768 2.93552,-4.25468 2.93552,-7.3976 0,-2.93536 -0.88976,-5.40919 -2.60039,-7.23007 -2.03966,-2.17111 -3.90931,-2.77805 -8.67065,-2.81466 l -6.07028,-0.0467 -14.09799,-13.70027 c -12.26815,-11.92207 -13.93683,-14.00137 -12.85646,-16.02005 0.68281,-1.27586 1.24148,-3.89228 1.24148,-5.81423 0,-3.29311 0.73747,-3.81933 12.79687,-9.131157 10.73476,-4.7284 13.24911,-5.43061 15.60365,-4.35785 1.54372,0.7034 4.42046,1.27889 6.39273,1.27889 2.20988,0 4.70916,-1.12324 6.51298,-2.92708 2.79196,-2.79192 2.98261,-2.82327 4.13041,-0.67859 0.66181,1.23664 2.53415,7.74457 4.1607,14.462047 1.62655,6.71749 3.57971,17.74422 4.34033,24.50386 1.04752,9.30931 1.04665,15.50207 -0.004,25.53277 -0.76261,7.28344 -2.66019,18.26347 -4.2169,24.40006 -1.55666,6.13661 -4.50435,15.17871 -6.55041,20.09355 -2.04606,4.91486 -6.73275,14.20931 -10.41481,20.65427 -4.70052,8.22759 -6.31844,12.09439 -5.43157,12.98128 0.88689,0.88689 3.68557,7.2e-4 9.3955,-2.97327 4.47279,-2.33005 13.51218,-6.23653 20.08749,-8.68107 6.57534,-2.44456 15.18618,-5.43069 19.13523,-6.63582 3.94905,-1.20513 12.56185,-3.51311 19.13959,-5.12887 6.57772,-1.61574 14.11224,-3.29087 16.74331,-3.72247 2.6311,-0.43159 5.72563,-1.0614 6.87673,-1.39953 1.9071,-0.56022 2.09291,0.59956 2.09291,13.06189 v 13.67666 l -8.15803,-0.14161 c -7.03313,-0.12218 -8.84387,0.31205 -13.13187,3.14856 -2.73557,1.80962 -6.06077,5.42087 -7.3893,8.02504 -1.32859,2.6041 -2.41559,5.49621 -2.41559,6.42685 0,0.93838 -1.66473,2.02505 -3.73733,2.43956 -2.05557,0.41109 -5.15009,0.73046 -6.87673,0.70967 -2.40115,-0.0289 -3.87492,-1.25104 -6.26731,-5.19721 -2.0899,-3.44719 -4.89413,-6.01437 -8.45024,-7.73587 -2.92729,-1.41707 -6.90148,-2.56467 -8.8316,-2.55024 -1.9301,0.0144 -5.68423,1.01423 -8.34252,2.22173 -2.65831,1.20749 -6.29117,3.92805 -8.07302,6.04566 -1.78188,2.11764 -3.5834,5.2195 -4.00346,6.89306 -0.73292,2.92018 -1.02576,3.01206 -7.26387,2.27888 -3.5751,-0.42017 -8.7476,-1.89241 -11.49445,-3.27163 -2.74685,-1.37921 -6.73135,-3.80985 -8.85446,-5.40145 -2.12309,-1.59157 -5.21837,-5.21138 -6.87841,-8.04402 -1.66004,-2.83265 -3.60615,-8.07763 -4.32469,-11.65554 -1.08549,-5.40506 -0.88293,-8.95918 1.19765,-21.01376 1.37724,-7.97966 2.49227,-16.57449 2.47782,-19.09969 -0.0145,-2.52516 -1.0232,-6.78624 -2.24164,-9.46902 -1.2185,-2.68281 -3.70132,-6.04665 -5.51746,-7.47522 -1.81612,-1.42857 -5.3819,-3.22053 -7.92394,-3.98215 -3.50043,-1.04876 -5.74272,-1.04892 -9.24137,-7e-4 -2.540739,0.7612 -6.102155,2.86457 -7.914261,4.67412 -1.812135,1.80955 -3.769689,4.53601 -4.350141,6.05884 -0.58046,1.5228 -1.055357,4.49118 -1.055357,6.59639 0,2.1052 0.983387,5.66127 2.185318,7.9024 1.201931,2.24111 4.027362,5.08321 6.278771,6.31573 2.251343,1.23253 5.57338,2.04005 7.38224,1.79448 2.94491,-0.39981 3.28888,-0.0778 3.28888,3.07819 0,1.9386 -1.85578,10.59076 -4.12391,19.2271 -2.26818,8.63629 -4.466824,19.46961 -4.885872,24.07404 -0.516641,5.67642 -0.166018,11.19326 1.089211,17.13588 1.018131,4.82033 3.239071,11.79583 4.935411,15.50109 1.69632,3.70529 5.18689,9.46231 7.75679,12.79336 2.56989,3.33109 7.16476,7.92385 10.21083,10.20615 5.20557,3.90041 5.37092,4.19122 2.75259,4.84141 -1.5321,0.38049 -10.0625,0.44868 -18.95645,0.15154 -13.741334,-0.45906 -16.407027,-0.25557 -17.743224,1.35446 -0.864863,1.04207 -1.225272,2.45643 -0.800921,3.14302 0.494163,0.79961 9.343809,1.24833 24.619935,1.24833 13.11665,0 23.84846,0.47684 23.84846,1.0597 0,0.58279 -2.20552,4.36246 -4.90119,8.39924 -2.71398,4.06418 -4.59869,8.12779 -4.22334,9.10591 0.37277,0.97149 1.42117,1.76633 2.32974,1.76633 0.90855,0 4.69621,-4.57451 8.41699,-10.16559 l 6.76507,-10.16559 h 21.65686 21.65688 l -2.11488,3.28886 c -1.16319,1.80889 -2.85039,4.36523 -3.74937,5.68078 -1.25894,1.84234 -2.9873,2.39532 -7.52252,2.4068 -4.07003,0.0103 -6.92442,0.78226 -9.24465,2.50025 -1.84615,1.36694 -4.1128,4.62376 -5.03706,7.23736 -0.92991,2.62964 -1.33067,6.14555 -0.8973,7.87216 0.43071,1.71608 2.13807,4.73043 3.79416,6.69857 2.00097,2.37805 4.58326,3.84405 7.69784,4.37025 3.22027,0.54404 5.94336,0.19557 8.7024,-1.11365 2.20855,-1.04806 4.93371,-3.45987 6.05589,-5.3596 1.12221,-1.89974 2.04038,-5.36389 2.04038,-7.6981 0,-2.33418 -0.61502,-5.59384 -1.36672,-7.24365 -1.21191,-2.65983 -0.78955,-3.88554 3.72831,-10.81983 l 5.09508,-7.8202 h 23.82061 23.82064 l -1.415,2.69092 c -0.77829,1.47997 -2.98768,4.99542 -4.90982,7.81211 -3.17863,4.65795 -3.83992,5.0565 -7.31014,4.40549 -2.09846,-0.3937 -5.23703,-0.17532 -6.97464,0.48537 -1.73762,0.66063 -4.55745,2.709 -6.2663,4.55194 -2.34649,2.53056 -3.10703,4.61248 -3.10703,8.50518 0,2.83494 0.84208,6.78287 1.87129,8.77315 1.02925,1.99031 3.58561,4.36434 5.68079,5.27557 2.09519,0.9113 5.20985,1.67793 6.92147,1.70366 1.71159,0.0257 4.93282,-1.18023 7.15826,-2.67997 z m -13.0517,-6.02095 c -1.54637,-1.64606 -2.60038,-4.31217 -2.60038,-6.57776 0,-2.21514 1.00115,-4.81089 2.39191,-6.20165 1.31555,-1.31554 3.98547,-2.39191 5.93317,-2.39191 2.10288,0 4.53175,1.06313 5.97976,2.61742 1.41336,1.51704 2.43849,4.24586 2.43849,6.49095 0,2.76014 -0.90572,4.58595 -3.15116,6.35219 -1.73313,1.36331 -4.3302,2.47874 -5.77128,2.47874 -1.44109,0 -3.7903,-1.24561 -5.22051,-2.76798 z m -53.48264,-3.75541 c -1.61453,-1.61455 -2.93553,-4.32989 -2.93553,-6.03411 0,-1.70423 1.321,-4.41959 2.93553,-6.03413 1.61453,-1.61454 4.30542,-2.93552 5.97976,-2.93552 1.67431,0 4.12057,1.07635 5.43612,2.39192 1.4807,1.4807 2.39191,3.98648 2.39191,6.57773 0,2.59122 -0.91121,5.09703 -2.39191,6.57771 -1.31555,1.31555 -3.76181,2.3919 -5.43612,2.3919 -1.67434,0 -4.36523,-1.32098 -5.97976,-2.9355 z m -16.94494,-37.49015 c -1.0232,-0.65021 1.4035,-5.22212 8.21884,-15.48419 l 9.67072,-14.56153 3.38232,1.74904 c 1.86026,0.962 6.12665,1.74907 9.48085,1.74907 3.35421,0 7.60646,-0.77977 9.44948,-1.73284 1.84299,-0.95305 5.04535,-3.66269 7.11632,-6.02137 2.07094,-2.35871 3.7736,-5.4807 3.78368,-6.93781 0.008,-1.45712 0.4238,-3.28695 0.91942,-4.06632 0.49561,-0.77941 3.60921,-1.77633 6.91913,-2.21542 l 6.01808,-0.7983 1.21739,4.00932 c 1.14354,3.76594 0.7575,4.7171 -6.35992,15.66982 l -7.57734,11.66052 h -17.84827 c -11.10812,0 -18.13958,0.47145 -18.61977,1.24834 -0.42432,0.68659 -0.12114,2.03203 0.67384,2.98989 1.123,1.35311 4.74706,1.74153 16.24831,1.74153 8.14163,0 14.80297,0.32056 14.80297,0.71236 0,0.39179 -1.15981,2.40995 -2.57735,4.4848 -1.41755,2.07485 -3.40403,4.4452 -4.41442,5.26743 -1.29656,1.05509 -7.31177,1.48952 -20.44471,1.47662 -10.23423,-0.008 -19.26102,-0.43351 -20.05957,-0.94096 z m 50.30186,-2.92756 c 1.04591,-1.47999 6.05527,-9.14904 11.1319,-17.04233 5.07664,-7.89327 9.33854,-14.51495 9.47089,-14.71482 0.13231,-0.19993 2.03289,0.72646 4.22343,2.05862 2.19053,1.33213 6.31013,2.77106 9.15468,3.19763 3.58527,0.53764 6.80367,0.15238 10.49086,-1.25575 3.09725,-1.18283 7.0519,-4.05587 9.46774,-6.87822 2.75572,-3.21946 4.41187,-6.60125 4.93227,-10.07151 0.76426,-5.09664 0.89732,-5.22897 5.43146,-5.404 2.55643,-0.0986 5.2461,-0.2332 5.97703,-0.29898 0.73096,-0.0658 2.13997,1.91363 3.13114,4.3987 l 1.80214,4.51829 -8.6763,13.12198 -8.67633,13.12198 h -18.97182 c -11.73098,0 -19.04031,0.45646 -19.15123,1.19596 -0.0986,0.65779 -0.23319,1.86867 -0.29899,2.6909 -0.0885,1.10631 4.32032,1.65039 16.95972,2.0929 l 17.07929,0.59797 -3.92382,5.66894 -3.92386,5.6689 -23.76588,0.0124 -23.76592,0.0124 z m -68.20777,-2.08472 c -3.41131,-1.95646 -9.00136,-6.35615 -12.42228,-9.77711 -3.82695,-3.82692 -7.76965,-9.48322 -10.24803,-14.70202 -2.54969,-5.36892 -4.53608,-11.98195 -5.41198,-18.01756 -1.1537,-7.94951 -1.06358,-11.32555 0.54171,-20.29897 1.05907,-5.91995 3.32081,-15.87624 5.02613,-22.12509 1.92208,-7.04311 3.19584,-15.05895 3.35119,-21.08926 0.21078,-8.18076 -0.11971,-10.13913 -2.07887,-12.3151 -1.46003,-1.62168 -3.4343,-2.45468 -5.28955,-2.2318 -1.62803,0.19557 -3.1928,1.06387 -3.47728,1.92954 -0.28445,0.86569 0.59804,1.86559 1.96107,2.22205 1.36308,0.35646 2.80968,1.69216 3.2147,2.96827 0.40502,1.27608 0.0878,3.10158 -0.70481,4.05669 -0.79265,0.95509 -2.7452,1.73652 -4.33897,1.73652 -1.59378,0 -4.2188,-1.32098 -5.833332,-2.93551 -2.100779,-2.10078 -2.927954,-4.22626 -2.908919,-7.47467 0.01451,-2.49658 0.956453,-5.68711 2.092927,-7.09012 1.136453,-1.40302 3.241819,-3.15208 4.678584,-3.88686 1.43674,-0.73474 4.32547,-1.33591 6.41943,-1.33591 2.82787,0 5.00148,1.19434 8.45029,4.6431 4.43533,4.43538 4.6412,4.98386 4.60108,12.25852 -0.023,4.18845 -0.81147,11.11354 -1.75192,15.38906 -0.94042,4.27555 -1.72879,11.57779 -1.7519,16.22728 -0.0232,4.64948 0.77704,11.21168 1.77816,14.58271 1.22901,4.13863 3.77439,8.26742 7.83752,12.71313 3.66598,4.01117 8.8329,7.99092 13.22255,10.18444 4.06461,2.03111 10.19744,3.939 14.07019,4.37714 6.74493,0.7631 6.89592,0.86338 8.62909,5.72961 l 1.76405,4.95291 -7.31212,10.76355 c -4.02164,5.91997 -8.80512,13.3199 -10.62996,16.44436 -1.85218,3.17128 -4.1922,5.67577 -5.2971,5.66953 -1.08861,-0.006 -4.77037,-1.61195 -8.18165,-3.56843 z m 248.38251,-6.73997 c 0,-0.41363 1.86476,-2.81609 4.14393,-5.33884 2.27913,-2.52275 5.51554,-7.29359 7.19197,-10.60187 1.67642,-3.30828 4.11332,-10.45845 5.41531,-15.88931 1.45212,-6.05704 2.37049,-14.0628 2.37562,-20.70911 0.006,-7.02249 -0.87421,-14.38664 -2.5,-20.92914 -1.37961,-5.55186 -4.88387,-15.15738 -7.78723,-21.3456 -2.90339,-6.18823 -6.95726,-13.97902 -9.00863,-17.31292 -2.05134,-3.33388 -5.09117,-9.57251 -6.75513,-13.86367 -2.48221,-6.40114 -3.04003,-9.94948 -3.10664,-19.76158 -0.0661,-9.75974 0.41616,-13.20173 2.62277,-18.71314 1.48719,-3.71453 4.81976,-9.1573 7.40568,-12.09512 4.40923,-5.00912 4.61474,-5.57195 3.30302,-9.04703 -0.7693,-2.03812 -1.0227,-4.08167 -0.56311,-4.54127 0.4596,-0.45957 1.93709,0.16126 3.28334,1.37954 2.35922,2.13508 2.57863,2.1378 6.06986,0.0755 1.99221,-1.17684 3.76115,-1.95269 3.93096,-1.72417 0.16993,0.22853 1.02196,2.20525 1.89365,4.39267 0.87167,2.18742 3.65542,5.6411 6.18615,7.67486 2.63616,2.11845 4.6013,4.7437 4.6013,6.14691 0,1.46686 2.99669,5.23083 7.47137,9.38443 7.35178,6.82418 7.44272,6.98572 5.68078,10.09092 -0.98483,1.73562 -3.24846,4.23831 -5.03024,5.56154 l -3.23965,2.4059 -4.53403,-3.10344 c -2.49375,-1.70686 -6.65484,-3.48908 -9.24693,-3.96048 -3.00137,-0.54583 -5.95828,-2.20477 -8.14228,-4.56806 l -3.42939,-3.71096 -2.30669,2.80411 c -1.26867,1.54226 -2.84712,4.81112 -3.50764,7.26413 -0.89757,3.33339 -0.75034,6.1901 0.58291,11.30877 0.98114,3.76681 2.66298,8.57063 3.73744,10.67515 1.07447,2.1045 5.43792,9.71668 9.69656,16.91593 4.25866,7.19925 9.27124,16.90614 11.13909,21.57083 1.86783,4.6647 4.02335,11.15251 4.79008,14.41734 0.7667,3.26483 1.43452,10.51057 1.48405,16.10163 0.0496,5.59107 -0.62645,13.12555 -1.50221,16.74333 -0.87577,3.61776 -2.78431,9.26862 -4.24121,12.55748 -1.45687,3.28888 -4.74378,8.72704 -7.30418,12.08485 -2.56043,3.35782 -7.83357,8.87416 -11.71809,12.25853 -3.88455,3.38435 -7.51725,6.15338 -8.0727,6.15338 -0.55541,0 -1.00986,-0.3384 -1.00986,-0.75203 z m -205.2071,-21.2325 c -2.02911,-0.9091 -4.90743,-3.19629 -6.39631,-5.08258 -2.24144,-2.83982 -2.6183,-4.51108 -2.19129,-9.71762 0.3668,-4.47221 1.32973,-7.15444 3.33479,-9.28872 1.55051,-1.65047 4.80048,-3.59443 7.22219,-4.32 3.28243,-0.98344 5.50235,-0.95641 8.72214,0.10627 2.37548,0.78397 5.35824,2.8848 6.62838,4.66853 1.27015,1.78372 2.64267,5.10859 3.05011,7.38859 0.50855,2.84576 0.0719,5.43117 -1.39222,8.24629 -1.17316,2.25542 -3.47848,5.07464 -5.12291,6.26491 -1.64443,1.19024 -4.6044,2.43933 -6.57773,2.77571 -1.97333,0.33638 -5.24804,-0.1321 -7.27715,-1.04135 z m 10.02785,-9.34942 c 0.78932,-0.78933 1.43514,-2.83441 1.43514,-4.54462 0,-1.71019 -0.64582,-3.75529 -1.43514,-4.5446 -0.78934,-0.78933 -2.95359,-1.43514 -4.80947,-1.43514 -2.43867,0 -3.75203,0.82902 -4.73656,2.98987 -1.0191,2.23662 -1.0191,3.74313 0,5.97974 0.98453,2.16086 2.29789,2.9899 4.73656,2.9899 1.85588,0 4.02013,-0.64583 4.80947,-1.43515 z m 44.86767,5.09071 c -3.16561,-1.43724 -5.75144,-3.71808 -7.03979,-6.20947 -1.11999,-2.1658 -2.03634,-5.93449 -2.03634,-8.3749 0,-2.44038 1.01521,-6.16613 2.25602,-8.2794 1.2408,-2.11328 4.1312,-4.845 6.42316,-6.0705 2.29195,-1.22549 5.7901,-2.22616 7.77367,-2.2237 1.98358,0.002 5.36051,1.07389 7.50429,2.38096 2.14378,1.3071 4.99917,4.1305 6.34534,6.27427 1.84488,2.93803 2.32621,5.30617 1.95478,9.61757 -0.3346,3.8844 -1.41133,6.71616 -3.35542,8.82479 -1.57449,1.70773 -4.5945,3.84289 -6.71114,4.74478 -2.11663,0.90189 -4.80752,1.62797 -5.97975,1.61352 -1.17223,-0.0145 -4.3829,-1.0485 -7.13482,-2.29792 z m 11.58122,-9.63533 c 1.31555,-1.31555 2.3919,-3.15516 2.3919,-4.088 0,-0.93288 -0.34247,-2.58863 -0.76108,-3.67948 -0.4186,-1.09085 -2.1058,-2.49459 -3.74927,-3.11946 -2.2055,-0.83852 -3.72908,-0.65068 -5.81665,0.71716 -1.90517,1.24831 -2.82847,2.99332 -2.82847,5.34574 0,2.25324 0.94313,4.15304 2.65803,5.3542 1.46188,1.02397 3.34553,1.86175 4.18583,1.86175 0.8403,0 2.60416,-1.07635 3.91971,-2.39191 z m 48.41379,6.70501 c -1.98556,-0.86517 -5.29761,-3.49501 -7.36015,-5.8441 -2.06253,-2.34911 -4.12438,-5.97523 -4.58183,-8.05809 -0.45748,-2.08283 -0.47264,-6.18187 -0.0337,-9.10893 0.52269,-3.48553 2.10495,-6.81039 4.58539,-9.63545 2.08301,-2.37243 5.5275,-5.04061 7.65442,-5.92928 2.12692,-0.8887 5.59809,-1.61578 7.71378,-1.61578 2.11562,0 6.17688,1.12803 9.02494,2.50676 3.45281,1.67146 6.16893,4.19717 8.15127,7.57978 2.02827,3.46094 2.973,6.86366 2.973,10.70808 0,3.09928 -0.75925,7.08836 -1.68717,8.86455 -0.92793,1.77623 -3.21519,4.67524 -5.08281,6.44226 -1.8676,1.76704 -4.91066,3.78519 -6.76237,4.48481 -1.85168,0.69964 -5.08074,1.251 -7.17572,1.22524 -2.09489,-0.0257 -5.43351,-0.75469 -7.41907,-1.61985 z m 11.76139,-11.66785 c 1.43674,-0.75625 3.00767,-1.96715 3.49092,-2.69089 0.48327,-0.72375 0.88691,-3.06498 0.89697,-5.20275 0.0103,-2.31185 -0.95091,-4.85604 -2.37359,-6.27873 -1.31555,-1.31554 -3.98549,-2.3919 -5.93316,-2.3919 -2.10289,0 -4.53176,1.06312 -5.97977,2.61739 -1.34117,1.4396 -2.43848,4.15493 -2.43848,6.03412 0,2.03303 1.18881,4.60556 2.9355,6.35224 1.61453,1.61451 3.80264,2.93553 4.86243,2.93553 1.0598,0 3.10244,-0.61877 4.53918,-1.37501 z M 166.10514,219.55138 c 0,-0.30319 2.35928,-5.60801 5.24281,-11.7885 2.88358,-6.18047 6.59422,-15.54265 8.24589,-20.80483 1.65165,-5.2622 3.90991,-14.92067 5.01833,-21.46331 1.13366,-6.69181 1.98699,-17.9402 1.95063,-25.71296 -0.0356,-7.59949 -0.90085,-18.66086 -1.92279,-24.58083 -1.02198,-5.91995 -2.63424,-13.83834 -3.58279,-17.596457 -0.94857,-3.75809 -3.69203,-12.09987 -6.09656,-18.53725 -2.40452,-6.43737 -6.46304,-15.875222 -9.01897,-20.972963 -3.43234,-6.845806 -4.18742,-9.268598 -2.88863,-9.268598 0.96712,0 5.95128,0.569685 11.07589,1.265954 5.12462,0.69627 10.47712,1.500951 11.89447,1.788131 1.85472,0.375806 4.25095,3.792032 8.54934,12.188468 3.28479,6.416494 7.68444,16.509948 9.77698,22.429908 2.09253,5.91995 4.84649,15.338077 6.11987,20.929147 1.27338,5.59105 2.65584,16.72013 3.07217,24.73124 0.48278,9.29044 0.23136,17.95315 -0.6942,23.91903 -0.79808,5.14434 -2.75697,14.36171 -4.35305,20.48302 -1.5961,6.12131 -4.84387,15.6499 -7.21729,21.17464 -4.15108,9.66279 -4.52688,10.12212 -9.87709,12.07202 -3.05898,1.11487 -9.32907,3.59757 -13.93349,5.51706 -4.60441,1.91952 -9.04437,3.77988 -9.86661,4.13417 -0.82221,0.35428 -1.49491,0.39611 -1.49491,0.0928 z m 42.72585,-25.03201 c 2.26748,-6.03674 5.16874,-15.05122 6.4472,-20.03218 1.27848,-4.98095 2.88668,-14.43805 3.5738,-21.01577 0.68714,-6.57774 0.90935,-16.80314 0.49383,-22.72311 -0.41551,-5.91993 -1.55902,-15.25518 -2.54114,-20.74496 -0.98213,-5.4898 -3.63194,-15.617507 -5.88845,-22.506057 -2.25654,-6.88853 -6.51522,-17.171643 -9.46378,-22.851352 -2.94855,-5.679686 -5.12342,-10.564301 -4.83306,-10.854664 0.29039,-0.290362 5.94014,0.306715 12.555,1.326838 6.61483,1.020143 12.79972,2.496101 13.74414,3.279902 0.94442,0.783803 4.69593,7.426965 8.33667,14.762616 3.96257,7.98413 7.77947,17.9311 9.50944,24.78206 1.58948,6.294507 3.47029,15.617037 4.17961,20.716707 0.70929,5.09967 1.28809,13.40406 1.28623,18.45422 -0.002,5.05012 -0.59693,14.02567 -1.32239,19.94565 -0.72547,5.91995 -2.63069,15.33807 -4.23381,20.92914 -1.60314,5.59108 -4.1026,12.55218 -5.55432,15.46914 l -2.63953,5.30352 -13.15547,3.3097 c -7.2355,1.82032 -13.48425,3.33551 -13.88606,3.36711 -0.40184,0.0314 1.12458,-4.88174 3.39209,-10.91851 z m 110.35592,4.32386 c -2.30221,-0.89968 -6.51806,-2.22567 -9.36859,-2.94666 -4.16537,-1.05354 -5.01909,-1.70738 -4.34914,-3.33078 0.45844,-1.11093 2.45734,-6.5944 4.44202,-12.18549 1.98465,-5.59106 3.88528,-13.58367 4.22364,-17.76138 0.5556,-6.86034 0.40577,-7.5551 -1.54748,-7.17569 -1.6527,0.32102 -2.81467,3.09901 -4.92807,11.78161 -1.52098,6.24885 -4.18458,14.72515 -5.91908,18.83624 l -3.15361,7.4747 H 286.064 c -9.55431,0 -12.37434,-0.35435 -11.89719,-1.49494 0.34396,-0.82221 1.96538,-5.80036 3.60318,-11.06256 1.63778,-5.26218 3.67268,-12.79666 4.52199,-16.74331 0.91347,-4.2447 1.5249,-14.99172 1.4969,-26.31093 -0.0403,-16.28374 -0.51049,-21.1184 -3.15538,-32.44362 -1.70941,-7.319607 -4.79986,-17.545007 -6.86767,-22.723067 -2.06781,-5.17807 -5.09477,-11.701943 -6.72659,-14.497486 l -2.96693,-5.082772 2.74129,0.02564 c 1.50773,0.01448 7.45292,0.734329 13.21158,1.600288 5.75863,0.865918 10.65768,1.796106 10.88679,2.067083 0.22908,0.270927 2.34619,3.990763 4.70471,8.266287 2.3585,4.27555 5.88688,12.54151 7.84083,18.36884 1.95395,5.82737 4.13971,11.182227 4.85719,11.899707 0.94213,0.94212 1.70342,0.90575 2.74004,-0.13087 1.11663,-1.11665 0.83638,-3.49398 -1.26176,-10.703787 -1.48346,-5.09756 -4.54289,-12.999 -6.79876,-17.55874 -2.25586,-4.55975 -3.87036,-8.521677 -3.58774,-8.804284 0.28261,-0.282614 5.11213,0.170351 10.73227,1.006413 6.22733,0.926475 10.87615,2.263235 11.90226,3.422511 0.9261,1.04623 3.63028,5.59382 6.00929,10.10571 l 4.32545,8.20349 -2.64993,4.35403 c -1.45746,2.3947 -4.9596,7.986707 -7.78253,12.426667 l -5.13262,8.07266 h -5.89583 c -4.58865,0 -6.70665,0.68226 -9.55288,3.0772 -2.11349,1.77839 -4.19962,5.09226 -4.94261,7.85152 -0.93052,3.45563 -0.91471,5.89819 0.0573,8.8432 0.73857,2.23784 2.9373,5.41049 4.88608,7.05027 1.94876,1.63979 5.324,3.3155 7.5005,3.72382 2.43663,0.45712 5.63006,0.0434 8.3103,-1.07639 2.414,-1.00865 5.42806,-3.58217 6.7666,-5.77759 1.38504,-2.27176 2.41552,-6.05614 2.41807,-8.88032 0.002,-3.14497 -0.87445,-6.03888 -2.43041,-8.01698 l -2.43489,-3.09546 6.83421,-10.52027 6.83422,-10.520277 2.66541,8.371667 c 1.46596,4.60438 3.3457,13.65934 4.17718,20.12212 1.2075,9.38561 1.21507,14.30292 0.0374,24.43292 -0.8108,6.97535 -3.12024,17.83295 -5.13204,24.12806 -2.01185,6.29509 -5.21561,14.54015 -7.11953,18.32234 -1.9039,3.7822 -4.12662,6.82442 -4.93938,6.76051 -0.81274,-0.0636 -3.36135,-0.85233 -5.66356,-1.75202 z m -75.28094,-11.5862 c 1.85177,-5.42663 4.30534,-14.17203 5.45234,-19.4342 1.5191,-6.9694 2.08,-14.92643 2.06548,-29.30082 -0.0165,-15.66636 -0.55651,-22.25554 -2.62359,-31.97216 -1.43203,-6.731437 -4.00863,-16.149557 -5.72581,-20.929147 -1.71718,-4.77959 -5.21293,-12.86106 -7.76835,-17.958818 -2.55544,-5.097724 -4.141,-9.268601 -3.52348,-9.268601 0.61752,0 5.33258,0.550313 10.47793,1.222911 5.14535,0.67264 10.5465,1.48526 12.00259,1.805827 1.52559,0.335865 3.97666,2.851006 5.78424,5.935379 1.72523,2.943895 4.93243,9.610182 7.1271,14.814002 2.19472,5.20382 5.10213,13.68796 6.46095,18.853627 1.35882,5.16565 3.01069,12.8903 3.67084,17.16581 0.66015,4.27552 1.18555,13.69365 1.16759,20.92916 -0.0186,7.23551 -0.77582,17.32332 -1.68404,22.41739 -0.90824,5.09405 -3.34995,14.3605 -5.426,20.59209 -3.60197,10.81183 -3.94851,11.35586 -7.57556,11.8918 -2.09049,0.30891 -7.67183,1.13331 -12.40292,1.832 -4.73112,0.69869 -9.10699,1.27036 -9.72414,1.27036 -0.61713,0 0.39303,-4.43999 2.24483,-9.86661 z m -87.88101,-33.87104 c -1.03363,-1.03364 -1.87933,-2.54534 -1.87933,-3.35929 0,-0.81395 0.72352,-2.46941 1.60783,-3.67879 1.1844,-1.61976 2.44425,-1.98892 4.78379,-1.40175 2.48487,0.62368 3.17598,1.52085 3.17598,4.12301 0,1.82926 -0.64583,3.97169 -1.43514,4.76102 -0.78933,0.78932 -2.09634,1.43514 -2.90446,1.43514 -0.80813,0 -2.31503,-0.8457 -3.34867,-1.87934 z m 149.12438,-14.30038 c -1.43566,-1.00558 -2.96117,-3.69885 -3.39009,-5.98502 -0.54872,-2.92498 -0.19,-5.057 1.21078,-7.19472 1.09479,-1.6709 3.37892,-3.56585 5.07584,-4.21101 1.69689,-0.64516 4.10878,-0.8482 5.35968,-0.45116 1.25092,0.39702 3.33255,1.85766 4.62586,3.24583 1.46862,1.57639 2.35145,4.20276 2.35145,6.99549 0,3.40617 -0.75077,5.06203 -3.15117,6.95018 -1.73314,1.36331 -4.57338,2.47872 -6.31164,2.47872 -1.73825,0 -4.33507,-0.82273 -5.77071,-1.82831 z M 105.87087,110.92833 c -2.43902,-1.91853 -3.15117,-3.52966 -3.15117,-7.12912 0,-3.24386 0.79167,-5.387927 2.61742,-7.088897 1.48082,-1.3796 4.2466,-2.43849 6.36925,-2.43849 2.37544,0 4.70583,1.01547 6.35222,2.76796 1.67929,1.78755 2.60036,4.298477 2.60036,7.088907 0,3.24352 -0.78572,4.93901 -3.15115,6.79964 -1.73316,1.36329 -4.35143,2.47869 -5.81846,2.47869 -1.46705,0 -4.08535,-1.1154 -5.81847,-2.47869 z m 51.35004,-25.711557 c -1.03363,-1.03363 -1.87933,-2.60973 -1.87933,-3.50245 0,-0.89269 0.8457,-2.46879 1.87933,-3.50241 1.03364,-1.03366 2.60974,-1.87936 3.50246,-1.87936 0.89269,0 2.46878,0.8457 3.5024,1.87936 1.03366,1.03362 1.87937,2.41446 1.87937,3.06847 0,0.65404 -0.55712,2.23014 -1.23803,3.50244 -0.68092,1.2723 -2.25703,2.31328 -3.50245,2.31328 -1.2454,0 -3.11011,-0.84569 -4.14375,-1.87933 z m 201.43237,-31.6073 c -1.31554,-1.315551 -2.3919,-3.962424 -2.3919,-5.881936 0,-1.919533 0.33432,-4.36122 0.7429,-5.426019 0.40861,-1.064798 2.24393,-2.712182 4.0785,-3.660857 2.59486,-1.341868 4.16179,-1.436884 7.05605,-0.427966 2.04622,0.713325 4.24725,2.281301 4.89113,3.484448 0.64388,1.203106 1.1707,3.735903 1.1707,5.628434 0,1.892533 -1.09732,4.618794 -2.43849,6.058386 -1.60122,1.718709 -3.8597,2.617415 -6.57773,2.617415 -2.54467,0 -5.06072,-0.921468 -6.53116,-2.391905 z M 294.75533,38.574649 c -1.03366,-1.033622 -1.87936,-2.379066 -1.87936,-2.989871 0,-0.610783 1.08869,-2.199206 2.41931,-3.529828 1.95108,-1.95108 2.89,-2.167409 4.85136,-1.117723 1.33763,0.715868 2.7122,2.031605 3.05458,2.923819 0.34235,0.892236 0.0238,2.740651 -0.70762,4.107616 -0.73158,1.366925 -2.34909,2.485351 -3.59452,2.485351 -1.24545,0 -3.11011,-0.845719 -4.14375,-1.879364 z"
       style="mix-blend-mode:normal;fill:#318ce7;fill-opacity:1;stroke-width:1.19595"
       id="path1" />
    <path
       d="m 93.187464,462.94798 c 2.9806,-0.48375 7.197936,-1.64192 9.371786,-2.57374 2.17384,-0.93181 5.76792,-3.36764 7.98679,-5.41296 2.21886,-2.04529 4.88527,-5.31007 5.9253,-7.25504 1.55695,-2.91159 1.89146,-5.00364 1.89337,-11.84182 0,-7.45168 -0.24024,-8.71828 -2.3584,-12.32139 -1.29853,-2.20874 -3.73929,-5.06724 -5.42398,-6.3522 -1.6847,-1.28497 -4.81814,-3.08861 -6.96321,-4.00811 -2.14511,-0.9195 -8.162786,-2.70834 -13.37258,-3.97522 -5.209895,-1.26688 -11.155276,-3.10583 -13.21199,-4.08657 -2.193643,-1.04604 -4.303647,-2.87424 -5.104343,-4.4226 -0.863799,-1.67042 -1.171101,-3.67252 -0.837029,-5.45333 0.290347,-1.54763 1.467971,-3.69705 2.616961,-4.77645 1.148979,-1.07942 3.782966,-2.34319 5.853293,-2.80836 2.070428,-0.46518 5.353528,-0.58197 7.295882,-0.25951 1.942325,0.32244 4.57874,1.122 5.85858,1.7768 1.27982,0.6548 3.12136,2.20041 4.09231,3.43471 0.97087,1.2343 2.029416,3.44707 2.352376,4.91726 0.53338,2.42866 0.8287,2.62478 3.22959,2.14461 1.45337,-0.29068 5.59431,-0.52851 9.20192,-0.52851 h 6.5594 l -0.57072,-3.56929 c -0.31395,-1.96311 -1.53861,-5.47924 -2.72157,-7.81362 -1.18286,-2.3344 -3.59381,-5.64588 -5.35763,-7.35887 -1.76382,-1.71299 -5.26294,-4.08718 -7.77584,-5.27596 -2.51286,-1.18879 -7.370346,-2.59608 -10.794196,-3.12733 -4.567923,-0.70873 -7.91284,-0.70479 -12.563714,0.0149 -3.486116,0.53942 -8.305468,1.88379 -10.70968,2.98751 -2.404215,1.10371 -5.65763,3.09465 -7.229789,4.4243 -1.572171,1.32964 -3.902405,4.19883 -5.17832,6.376 -1.802656,3.07603 -2.406236,5.45148 -2.70751,10.65574 -0.322071,5.56382 -0.05686,7.46636 1.567237,11.24161 1.075203,2.49938 3.513157,5.95211 5.417663,7.67273 1.904506,1.72061 5.299883,3.92203 7.54526,4.89205 2.245378,0.97001 8.490262,2.89007 13.877521,4.26681 5.387269,1.37671 10.982082,3.11695 12.432832,3.86717 1.45084,0.75024 3.43601,2.22087 4.41169,3.26808 1.195286,1.28298 1.773886,3.09509 1.773886,5.55545 0,2.33707 -0.6343,4.45782 -1.762176,5.89168 -0.9692,1.23216 -3.23002,2.72469 -5.0241,3.31677 -1.79398,0.59208 -5.426959,1.04937 -8.073253,1.01619 -2.646204,-0.0332 -5.99157,-0.51416 -7.434098,-1.06884 -1.442518,-0.55469 -3.69414,-2.03056 -5.003618,-3.27973 -1.309467,-1.24916 -2.984993,-4.09017 -3.723422,-6.31335 l -1.342575,-4.04213 -8.953347,0.34707 c -4.924328,0.19088 -9.083165,0.46561 -9.241842,0.61051 -0.158686,0.14491 0.348331,2.75641 1.126698,5.80335 0.778379,3.04692 2.340822,6.9422 3.472087,8.65618 1.131277,1.71398 3.375558,4.43501 4.987292,6.04673 1.611723,1.61175 5.293531,4.03519 8.181793,5.38546 2.888265,1.35026 7.415174,2.81247 10.059812,3.24935 2.644639,0.43686 6.185371,0.83734 7.868327,0.88992 1.682947,0.0526 5.498657,-0.3002 8.479276,-0.78395 z m 76.783806,-0.0597 c 2.83383,-0.52385 7.02249,-1.90008 9.30807,-3.05827 2.28558,-1.1582 5.51299,-3.29766 7.17214,-4.75437 1.6591,-1.4567 4.19882,-4.50643 5.64388,-6.77713 1.44498,-2.27072 3.30024,-6.4695 4.12275,-9.33063 1.09912,-3.82365 1.36996,-7.03225 1.02192,-12.10919 -0.36465,-5.32003 -1.09851,-8.17693 -3.19393,-12.43325 -1.73094,-3.51604 -4.46284,-7.11854 -7.51077,-9.90412 -2.81187,-2.56998 -6.86512,-5.18691 -9.81425,-6.33666 -4.05439,-1.58058 -6.79598,-1.96124 -14.20383,-1.97215 -6.57915,-0.0102 -10.29422,0.41065 -13.11388,1.48379 -2.1638,0.8235 -5.97118,2.89181 -8.461,4.59624 -2.48972,1.70442 -5.90815,5.136 -7.59652,7.62575 -1.68838,2.48976 -3.7316,6.59983 -4.54046,9.13352 -1.07718,3.37379 -1.37136,6.64946 -1.0994,12.23963 0.28301,5.81702 0.91361,8.81332 2.65058,12.59449 1.25352,2.72885 3.87306,6.69061 5.821,8.80394 1.94804,2.11331 5.62235,4.9818 8.16524,6.37446 2.54287,1.39263 6.78722,3.00407 9.43185,3.58098 2.64462,0.57691 6.21153,1.08189 7.92629,1.12217 1.71486,0.0403 5.43649,-0.35532 8.27032,-0.8792 z m -13.57383,-16.17802 c -1.68295,-0.72896 -4.13131,-2.35077 -5.44079,-3.60399 -1.30944,-1.25324 -3.03096,-4.23596 -3.82556,-6.62827 -0.98275,-2.95899 -1.2886,-5.86202 -0.95655,-9.07978 0.28641,-2.77474 1.43169,-6.33999 2.77054,-8.6245 1.42836,-2.4374 3.56349,-4.54804 5.70672,-5.64147 2.15016,-1.09691 5.14546,-1.74583 8.04921,-1.74377 3.00947,10e-4 5.58162,0.58679 7.36477,1.6741 1.50705,0.91893 3.76726,3.01755 5.02272,4.66357 1.2555,1.64602 2.63981,4.9252 3.07633,7.28706 0.43644,2.36188 0.50838,6.06468 0.15974,8.22848 -0.34859,2.16379 -1.25362,5.11535 -2.01125,6.559 -0.75755,1.44367 -2.1206,3.2974 -3.02887,4.11939 -0.90835,0.822 -3.09977,2.09968 -4.86988,2.83927 -1.77011,0.73962 -4.50962,1.32935 -6.08781,1.31053 -1.57814,-0.0188 -4.24638,-0.63065 -5.92932,-1.35962 z m 120.41136,14.32157 c 2.05941,-0.96803 4.72546,-2.92601 5.9245,-4.35107 l 2.18024,-2.591 v 4.00124 4.00124 h 9.19038 9.19031 l -0.22915,-32.56616 -0.22923,-32.56614 -8.90275,-0.24851 -8.90277,-0.2485 -0.27696,20.35645 c -0.25406,18.66985 -0.42891,20.64622 -2.11071,23.85352 -1.00864,1.92336 -3.12435,4.25107 -4.7016,5.1727 -1.65088,0.96461 -4.50402,1.67565 -6.72367,1.67565 -2.47013,0 -4.70805,-0.62458 -6.22672,-1.7378 -1.30387,-0.95579 -3.0586,-3.08679 -3.8993,-4.73557 -1.32818,-2.60458 -1.52881,-5.72115 -1.52995,-23.76142 l -9.9e-4,-20.76366 h -9.17973 -9.17973 v 23.13731 c 0,18.90329 0.25643,23.90285 1.40127,27.3206 0.77074,2.30081 2.3557,5.45053 3.5223,6.99938 1.16654,1.54886 3.4104,3.79955 4.98626,5.00158 1.57594,1.20199 5.00696,2.77784 7.62458,3.50188 3.04278,0.84164 6.48501,1.13462 9.5443,0.81238 2.63186,-0.27723 6.47014,-1.29606 8.52953,-2.2641 z m 163.34371,1.85208 c 2.85323,-0.52629 7.26387,-1.97239 9.80158,-3.21358 2.53762,-1.24118 6.40098,-4.16719 8.58515,-6.50226 2.18416,-2.33506 5.00461,-6.49514 6.26763,-9.24463 1.74879,-3.80706 2.38402,-6.80076 2.66405,-12.55513 0.30163,-6.19792 0.0111,-8.63364 -1.62157,-13.55102 -1.67255,-5.04026 -2.90709,-6.91264 -7.75222,-11.75758 -4.34219,-4.34199 -7.0419,-6.2397 -10.9508,-7.69769 -2.85333,-1.06427 -7.65302,-2.16525 -10.66597,-2.44661 -3.06621,-0.28632 -7.90322,-0.0388 -10.98594,0.5623 -3.02931,0.59064 -7.79788,2.28906 -10.59681,3.77424 -2.79894,1.48522 -6.6164,4.43554 -8.48321,6.55632 -1.86672,2.12076 -4.22336,5.56903 -5.23698,7.66277 -1.01353,2.09377 -2.25917,6.31924 -2.76799,9.38996 -0.67965,4.10178 -0.64677,7.23344 0.12408,11.80325 0.69574,4.12478 2.06046,7.93039 4.05141,11.29709 1.65121,2.79229 4.47175,6.4066 6.26776,8.03176 1.79606,1.62516 5.34301,3.92163 7.88213,5.10327 2.53901,1.18164 6.47319,2.46125 8.74259,2.84359 2.26931,0.38233 5.33245,0.74142 6.80679,0.79798 1.47444,0.0566 5.01521,-0.32776 7.86835,-0.85403 z m -13.01116,-16.04644 c -1.83499,-0.65445 -4.08716,-1.86942 -5.00497,-2.69996 -0.91771,-0.83053 -2.46532,-3.15593 -3.43916,-5.16756 -1.2264,-2.53356 -1.77055,-5.42053 -1.77055,-9.39456 0,-3.15536 0.55787,-7.06368 1.23979,-8.68514 0.68184,-1.62144 2.35387,-3.98193 3.7156,-5.24549 1.36166,-1.26358 3.33514,-2.73888 4.38547,-3.27846 1.05023,-0.53961 3.94728,-0.98109 6.43787,-0.98109 2.94764,0 5.64326,0.62662 7.72223,1.79511 1.75674,0.9873 4.05561,3.05273 5.10866,4.58987 1.05305,1.5371 2.35752,4.86018 2.89877,7.3846 0.72582,3.3851 0.72835,5.7825 0.0102,9.13359 -0.53592,2.49904 -1.99821,5.8859 -3.24945,7.52637 -1.25114,1.64043 -3.89429,3.718 -5.87343,4.61679 -1.97925,0.89878 -4.77881,1.62553 -6.22132,1.61499 -1.44253,-0.0112 -4.12415,-0.55463 -5.95913,-1.20906 z m -68.97459,8.04213 0.25265,-7.64976 h -5.64526 c -3.10486,0 -6.28207,-0.24439 -7.06043,-0.54308 -0.77836,-0.29869 -1.99079,-1.65611 -2.69429,-3.0165 -0.97104,-1.87783 -1.27905,-5.94951 -1.27905,-16.9093 v -14.43587 l 8.08691,-0.25137 8.08689,-0.25138 v -7.4312 -7.4312 l -8.08689,-0.25139 -8.08691,-0.25135 v -9.14693 -9.14691 h -9.17973 -9.17971 v 9.17972 9.17972 h -5.71668 -5.71679 l 0.25267,7.64977 0.25258,7.64977 h 5.46568 5.4657 v 16.23367 c 0,12.14397 0.34096,17.38705 1.35798,20.81183 0.89183,3.00321 2.53316,5.75178 4.77109,7.98968 2.06238,2.06239 5.06853,3.92679 7.60161,4.71445 2.70461,0.84101 7.13455,1.24169 12.49551,1.13017 l 8.30389,-0.17276 z M 227.00155,415.97508 226.77532,369.8579 h -9.17974 -9.17973 l -0.22625,46.11718 -0.22635,46.11716 h 9.63233 9.63233 z m 160.2003,13.33245 v -32.7847 h -9.17971 -9.17972 v 32.78472 32.78472 h 9.17972 9.17971 z m 0,-50.26991 v -9.61682 h -9.61684 -9.61684 v 9.03399 c 0,4.96873 0.26226,9.29631 0.58286,9.61687 0.3205,0.32057 4.64808,0.58283 9.61686,0.58283 h 9.03396 z"
       style="mix-blend-mode:normal;fill:#318ce7;fill-opacity:1;stroke-width:0.874259"
       id="path1-7"
       sodipodi:nodetypes="sssscsssssssssssscsscssssssssssssssssssssssscssssssssssssssssssssssssssssssssssssscssssssssscscccccccccssssssccccssssssccssssscsssssssssssssssssssssssssssssssccsssscccccccccccccccccccsssssccccccccccccccccccccccccssscc" />
  </g>
</svg>
